<svg xmlns="http://www.w3.org/2000/svg" viewBox="20 612 1695 666" preserveAspectRatio="xMidYMid meet" style="color:#f4f1e9" role="img" aria-label="School of Computer Science and Engineering building - chalk doodle">
  <defs>
    <!-- Hand-drawn chalk: low-freq wobble + soft dusty edge. Lines stay continuous. -->
    <filter id="chalk" x="-4%" y="-4%" width="108%" height="108%">
      <feTurbulence type="fractalNoise" baseFrequency="0.016 0.04" numOctaves="3" seed="7" result="n"/>
      <feDisplacementMap in="SourceGraphic" in2="n" scale="4" xChannelSelector="R" yChannelSelector="G" result="d"/>
      <feGaussianBlur in="d" stdDeviation="0.45"/>
    </filter>
    <!-- subtle chalk grain texture, can be toggled by the host page -->
    <filter id="grain"><feTurbulence type="fractalNoise" baseFrequency="0.8" numOctaves="2" seed="4" result="g"/>
      <feColorMatrix in="g" type="matrix" values="0 0 0 0 0 0 0 0 0 0 0 0 0 0 0 0 0 0 0.5 0"/></filter>
  </defs>
  <g fill="none" stroke="currentColor" stroke-linecap="round" stroke-linejoin="round" filter="url(#chalk)">
    <g opacity="0.30" stroke-width="3.4">
      <path d="M40.0 981.0 L42.0 981.0 L44.0 981.0 L46.0 981.0 L48.0 981.0 L50.0 981.0 L52.0 981.0 L54.0 981.0 L56.0 981.0 L58.0 981.0 L60.0 981.0 L62.0 981.0 L64.0 981.0 L66.0 981.0 L68.0 981.0 L70.0 980.0 L72.0 977.0 L74.0 972.0 L76.0 964.0 L78.0 953.0 L80.0 941.0 L82.0 928.0 L84.0 914.0 L86.0 899.0 L88.0 886.0 L90.0 874.0 L92.0 863.0 L94.0 850.0 L96.0 836.0 L98.0 821.0 L100.0 806.0 L102.0 793.0 L104.0 782.0 L106.0 771.0 L108.0 760.0 L110.0 748.0 L112.0 735.0 L114.0 723.0 L116.0 712.0 L118.0 702.0 L120.0 693.0 L122.0 685.0 L124.0 676.0 L126.0 668.0 L128.0 659.0 L130.0 652.0 L132.0 646.0 L134.0 641.0 L136.0 638.0 L138.0 637.0 L140.0 636.0 L142.0 636.0 L144.0 636.0 L146.0 636.0 L148.0 636.0 L150.0 636.0 L152.0 636.0 L154.0 636.0 L156.0 636.0 L158.0 636.0 L160.0 636.0 L162.0 636.0 L164.0 636.0 L166.0 636.0 L168.0 636.0 L170.0 636.0 L172.0 636.0 L174.0 636.0 L176.0 636.0 L178.0 636.0 L180.0 636.0 L182.0 636.0 L184.0 636.0 L186.0 636.0 L188.0 636.0 L190.0 636.0 L192.0 636.0 L194.0 636.0 L196.0 636.0 L198.0 636.0 L200.0 636.0 L202.0 636.0 L204.0 636.0 L206.0 636.0 L208.0 636.0 L210.0 636.0 L212.0 636.0 L214.0 636.0 L216.0 636.0 L218.0 636.0 L220.0 636.0 L222.0 636.0 L224.0 636.0 L226.0 636.0 L228.0 636.0 L230.0 636.0 L232.0 636.0 L234.0 636.0 L236.0 636.0 L238.0 636.0 L240.0 636.0 L242.0 636.0 L244.0 636.0 L246.0 636.0 L248.0 636.0 L250.0 636.0 L252.0 636.0 L254.0 636.0 L256.0 637.0 L258.0 637.0 L260.0 637.0 L262.0 637.0 L264.0 637.0 L266.0 637.0 L268.0 637.0 L270.0 637.0 L272.0 637.0 L274.0 637.0 L276.0 637.0 L278.0 637.0 L280.0 637.0 L282.0 637.0 L284.0 637.0 L286.0 637.0 L288.0 637.0 L290.0 637.0 L292.0 637.0 L294.0 637.0 L296.0 637.0 L298.0 637.0 L300.0 637.0 L302.0 637.0 L304.0 637.0 L306.0 637.0 L308.0 637.0 L310.0 637.0 L312.0 637.0 L314.0 636.0 L316.0 636.0 L318.0 636.0 L320.0 636.0 L322.0 636.0 L324.0 636.0 L326.0 636.0 L328.0 636.0 L330.0 636.0 L332.0 636.0 L334.0 636.0 L336.0 636.0 L338.0 636.0 L340.0 636.0 L342.0 636.0 L344.0 636.0 L346.0 636.0 L348.0 636.0 L350.0 636.0 L352.0 636.0 L354.0 636.0 L356.0 636.0 L358.0 636.0 L360.0 636.0 L362.0 636.0 L364.0 636.0 L366.0 636.0 L368.0 636.0 L370.0 636.0 L372.0 636.0 L374.0 636.0 L376.0 636.0 L378.0 636.0 L380.0 636.0 L382.0 636.0 L384.0 635.0 L386.0 635.0 L388.0 635.0 L390.0 635.0 L392.0 635.0 L394.0 635.0 L396.0 635.0 L398.0 635.0 L400.0 635.0 L402.0 635.0 L404.0 635.0 L406.0 635.0 L408.0 635.0 L410.0 637.0 L412.0 639.0 L414.0 644.0 L416.0 649.0 L418.0 654.0 L420.0 656.0 L422.0 658.0 L424.0 658.0 L426.0 658.0 L428.0 658.0 L430.0 658.0 L432.0 658.0 L434.0 658.0 L436.0 658.0 L438.0 658.0 L440.0 658.0 L442.0 658.0 L444.0 658.0 L446.0 658.0 L448.0 658.0 L450.0 658.0 L452.0 658.0 L454.0 658.0 L456.0 658.0 L458.0 658.0 L460.0 658.0 L462.0 658.0 L464.0 658.0 L466.0 658.0 L468.0 658.0 L470.0 658.0 L472.0 658.0 L474.0 658.0 L476.0 658.0 L478.0 658.0 L480.0 658.0 L482.0 658.0 L484.0 658.0 L486.0 658.0 L488.0 658.0 L490.0 658.0 L492.0 658.0 L494.0 658.0 L496.0 658.0 L498.0 658.0 L500.0 658.0 L502.0 656.0 L504.0 654.0 L506.0 650.0 L508.0 644.0 L510.0 640.0 L512.0 637.0 L514.0 636.0 L516.0 635.0 L518.0 635.0 L520.0 635.0 L522.0 635.0 L524.0 635.0 L526.0 635.0 L528.0 635.0 L530.0 635.0 L532.0 635.0 L534.0 635.0 L536.0 635.0 L538.0 635.0 L540.0 635.0 L542.0 635.0 L544.0 635.0 L546.0 635.0 L548.0 635.0 L550.0 635.0 L552.0 636.0 L554.0 636.0 L556.0 636.0 L558.0 636.0 L560.0 636.0 L562.0 636.0 L564.0 636.0 L566.0 636.0 L568.0 636.0 L570.0 636.0 L572.0 636.0 L574.0 636.0 L576.0 636.0 L578.0 636.0 L580.0 636.0 L582.0 636.0 L584.0 636.0 L586.0 636.0 L588.0 636.0 L590.0 636.0 L592.0 636.0 L594.0 636.0 L596.0 636.0 L598.0 636.0 L600.0 636.0 L602.0 636.0 L604.0 636.0 L606.0 636.0 L608.0 636.0 L610.0 636.0 L612.0 636.0 L614.0 636.0 L616.0 636.0 L618.0 636.0 L620.0 636.0 L622.0 636.0 L624.0 636.0 L626.0 636.0 L628.0 636.0 L630.0 636.0 L632.0 636.0 L634.0 636.0 L636.0 636.0 L638.0 636.0 L640.0 636.0 L642.0 636.0 L644.0 636.0 L646.0 636.0 L648.0 636.0 L650.0 636.0 L652.0 636.0 L654.0 636.0 L656.0 636.0 L658.0 636.0 L660.0 636.0 L662.0 636.0 L664.0 636.0 L666.0 636.0 L668.0 636.0 L670.0 636.0 L672.0 636.0 L674.0 636.0 L676.0 636.0 L678.0 636.0 L680.0 636.0 L682.0 636.0 L684.0 636.0 L686.0 636.0 L688.0 636.0 L690.0 636.0 L692.0 636.0 L694.0 636.0 L696.0 636.0 L698.0 636.0 L700.0 636.0 L702.0 636.0 L704.0 636.0 L706.0 636.0 L708.0 636.0 L710.0 636.0 L712.0 636.0 L714.0 636.0 L716.0 636.0 L718.0 636.0 L720.0 636.0 L722.0 636.0 L724.0 636.0 L726.0 636.0 L728.0 636.0 L730.0 636.0 L732.0 636.0 L734.0 636.0 L736.0 636.0 L738.0 636.0 L740.0 636.0 L742.0 636.0 L744.0 636.0 L746.0 636.0 L748.0 636.0 L750.0 636.0 L752.0 636.0 L754.0 636.0 L756.0 636.0 L758.0 636.0 L760.0 636.0 L762.0 636.0 L764.0 636.0 L766.0 636.0 L768.0 636.0 L770.0 636.0 L772.0 636.0 L774.0 636.0 L776.0 636.0 L778.0 636.0 L780.0 636.0 L782.0 636.0 L784.0 636.0 L786.0 636.0 L788.0 636.0 L790.0 636.0 L792.0 636.0 L794.0 636.0 L796.0 636.0 L798.0 636.0 L800.0 636.0 L802.0 636.0 L804.0 636.0 L806.0 636.0 L808.0 637.0 L810.0 637.0 L812.0 637.0 L814.0 637.0 L816.0 637.0 L818.0 637.0 L820.0 637.0 L822.0 637.0 L824.0 637.0 L826.0 637.0 L828.0 637.0 L830.0 637.0 L832.0 636.0 L834.0 636.0 L836.0 636.0 L838.0 636.0 L840.0 636.0 L842.0 636.0 L844.0 636.0 L846.0 636.0 L848.0 636.0 L850.0 636.0 L852.0 636.0 L854.0 636.0 L856.0 636.0 L858.0 636.0 L860.0 636.0 L862.0 636.0 L864.0 637.0 L866.0 637.0 L868.0 637.0 L870.0 637.0 L872.0 637.0 L874.0 637.0 L876.0 637.0 L878.0 637.0 L880.0 637.0 L882.0 637.0 L884.0 637.0 L886.0 637.0 L888.0 637.0 L890.0 637.0 L892.0 637.0 L894.0 637.0 L896.0 637.0 L898.0 637.0 L900.0 637.0 L902.0 637.0 L904.0 637.0 L906.0 637.0 L908.0 637.0 L910.0 637.0 L912.0 637.0 L914.0 637.0 L916.0 637.0 L918.0 637.0 L920.0 637.0 L922.0 637.0 L924.0 637.0 L926.0 637.0 L928.0 638.0 L930.0 638.0 L932.0 638.0 L934.0 638.0 L936.0 638.0 L938.0 638.0 L940.0 638.0 L942.0 638.0 L944.0 638.0 L946.0 638.0 L948.0 638.0 L950.0 638.0 L952.0 638.0 L954.0 638.0 L956.0 638.0 L958.0 638.0 L960.0 638.0 L962.0 638.0 L964.0 638.0 L966.0 638.0 L968.0 638.0 L970.0 638.0 L972.0 638.0 L974.0 638.0 L976.0 638.0 L978.0 638.0 L980.0 638.0 L982.0 638.0 L984.0 638.0 L986.0 638.0 L988.0 638.0 L990.0 638.0 L992.0 638.0 L994.0 638.0 L996.0 638.0 L998.0 638.0 L1000.0 638.0 L1002.0 638.0 L1004.0 638.0 L1006.0 638.0 L1008.0 638.0 L1010.0 638.0 L1012.0 638.0 L1014.0 638.0 L1016.0 638.0 L1018.0 638.0 L1020.0 638.0 L1022.0 638.0 L1024.0 638.0 L1026.0 638.0 L1028.0 638.0 L1030.0 638.0 L1032.0 638.0 L1034.0 638.0 L1036.0 638.0 L1038.0 638.0 L1040.0 638.0 L1042.0 638.0 L1044.0 638.0 L1046.0 638.0 L1048.0 638.0 L1050.0 638.0 L1052.0 638.0 L1054.0 638.0 L1056.0 638.0 L1058.0 638.0 L1060.0 638.0 L1062.0 638.0 L1064.0 638.0 L1066.0 638.0 L1068.0 638.0 L1070.0 638.0 L1072.0 638.0 L1074.0 638.0 L1076.0 638.0 L1078.0 638.0 L1080.0 638.0 L1082.0 638.0 L1084.0 638.0 L1086.0 638.0 L1088.0 638.0 L1090.0 638.0 L1092.0 638.0 L1094.0 638.0 L1096.0 638.0 L1098.0 638.0 L1100.0 638.0 L1102.0 638.0 L1104.0 638.0 L1106.0 638.0 L1108.0 638.0 L1110.0 638.0 L1112.0 638.0 L1114.0 638.0 L1116.0 638.0 L1118.0 638.0 L1120.0 638.0 L1122.0 638.0 L1124.0 638.0 L1126.0 638.0 L1128.0 638.0 L1130.0 638.0 L1132.0 638.0 L1134.0 638.0 L1136.0 638.0 L1138.0 638.0 L1140.0 638.0 L1142.0 638.0 L1144.0 638.0 L1146.0 638.0 L1148.0 638.0 L1150.0 638.0 L1152.0 638.0 L1154.0 638.0 L1156.0 638.0 L1158.0 638.0 L1160.0 638.0 L1162.0 638.0 L1164.0 638.0 L1166.0 638.0 L1168.0 638.0 L1170.0 638.0 L1172.0 638.0 L1174.0 638.0 L1176.0 638.0 L1178.0 639.0 L1180.0 639.0 L1182.0 639.0 L1184.0 639.0 L1186.0 639.0 L1188.0 639.0 L1190.0 639.0 L1192.0 639.0 L1194.0 639.0 L1196.0 639.0 L1198.0 639.0 L1200.0 639.0 L1202.0 639.0 L1204.0 639.0 L1206.0 639.0 L1208.0 639.0 L1210.0 639.0 L1212.0 639.0 L1214.0 639.0 L1216.0 639.0 L1218.0 639.0 L1220.0 639.0 L1222.0 639.0 L1224.0 639.0 L1226.0 639.0 L1228.0 639.0 L1230.0 639.0 L1232.0 639.0 L1234.0 639.0 L1236.0 639.0 L1238.0 639.0 L1240.0 639.0 L1242.0 639.0 L1244.0 639.0 L1246.0 639.0 L1248.0 639.0 L1250.0 639.0 L1252.0 639.0 L1254.0 639.0 L1256.0 639.0 L1258.0 639.0 L1260.0 639.0 L1262.0 639.0 L1264.0 639.0 L1266.0 639.0 L1268.0 639.0 L1270.0 639.0 L1272.0 639.0 L1274.0 639.0 L1276.0 639.0 L1278.0 639.0 L1280.0 639.0 L1282.0 639.0 L1284.0 639.0 L1286.0 639.0 L1288.0 639.0 L1290.0 639.0 L1292.0 639.0 L1294.0 639.0 L1296.0 639.0 L1298.0 639.0 L1300.0 639.0 L1302.0 639.0 L1304.0 639.0 L1306.0 639.0 L1308.0 639.0 L1310.0 639.0 L1312.0 639.0 L1314.0 639.0 L1316.0 639.0 L1318.0 639.0 L1320.0 639.0 L1322.0 639.0 L1324.0 639.0 L1326.0 639.0 L1328.0 639.0 L1330.0 639.0 L1332.0 639.0 L1334.0 639.0 L1336.0 639.0 L1338.0 639.0 L1340.0 639.0 L1342.0 639.0 L1344.0 639.0 L1346.0 639.0 L1348.0 639.0 L1350.0 639.0 L1352.0 639.0 L1354.0 639.0 L1356.0 639.0 L1358.0 639.0 L1360.0 639.0 L1362.0 639.0 L1364.0 639.0 L1366.0 639.0 L1368.0 639.0 L1370.0 639.0 L1372.0 639.0 L1374.0 639.0 L1376.0 639.0 L1378.0 639.0 L1380.0 639.0 L1382.0 639.0 L1384.0 639.0 L1386.0 639.0 L1388.0 639.0 L1390.0 639.0 L1392.0 639.0 L1394.0 639.0 L1396.0 639.0 L1398.0 639.0 L1400.0 639.0 L1402.0 639.0 L1404.0 639.0 L1406.0 639.0 L1408.0 639.0 L1410.0 639.0 L1412.0 639.0 L1414.0 639.0 L1416.0 639.0 L1418.0 638.0 L1420.0 638.0 L1422.0 638.0 L1424.0 638.0 L1426.0 639.0 L1428.0 639.0 L1430.0 639.0 L1432.0 639.0 L1434.0 639.0 L1436.0 639.0 L1438.0 639.0 L1440.0 639.0 L1442.0 639.0 L1444.0 639.0 L1446.0 639.0 L1448.0 639.0 L1450.0 639.0 L1452.0 639.0 L1454.0 639.0 L1456.0 639.0 L1458.0 639.0 L1460.0 639.0 L1462.0 639.0 L1464.0 639.0 L1466.0 639.0 L1468.0 639.0 L1470.0 639.0 L1472.0 639.0 L1474.0 639.0 L1476.0 639.0 L1478.0 639.0 L1480.0 639.0 L1482.0 639.0 L1484.0 639.0 L1486.0 639.0 L1488.0 639.0 L1490.0 640.0 L1492.0 640.0 L1494.0 640.0 L1496.0 640.0 L1498.0 640.0 L1500.0 640.0 L1502.0 640.0 L1504.0 640.0 L1506.0 640.0 L1508.0 640.0 L1510.0 640.0 L1512.0 640.0 L1514.0 640.0 L1516.0 640.0 L1518.0 640.0 L1520.0 640.0 L1522.0 640.0 L1524.0 640.0 L1526.0 640.0 L1528.0 641.0 L1530.0 641.0 L1532.0 641.0 L1534.0 641.0 L1536.0 641.0 L1538.0 641.0 L1540.0 641.0 L1542.0 641.0 L1544.0 641.0 L1546.0 641.0 L1548.0 641.0 L1550.0 641.0 L1552.0 641.0 L1554.0 641.0 L1556.0 641.0 L1558.0 641.0 L1560.0 641.0 L1562.0 641.0 L1564.0 641.0 L1566.0 641.0 L1568.0 641.0 L1570.0 641.0 L1572.0 641.0 L1574.0 641.0 L1576.0 641.0 L1578.0 641.0 L1580.0 641.0 L1582.0 641.0 L1584.0 641.0 L1586.0 641.0 L1588.0 641.0 L1590.0 641.0 L1592.0 641.0 L1594.0 641.0 L1596.0 641.0 L1598.0 641.0 L1600.0 641.0 L1602.0 641.0 L1604.0 641.0 L1606.0 641.0 L1608.0 641.0 L1610.0 641.0 L1612.0 641.0 L1614.0 641.0 L1616.0 641.0 L1618.0 641.0 L1620.0 641.0 L1622.0 641.0 L1624.0 641.0 L1626.0 641.0 L1628.0 641.0 L1630.0 641.0 L1632.0 641.0 L1634.0 641.0 L1636.0 641.0 L1638.0 641.0 L1640.0 641.0 L1642.0 641.0 L1644.0 641.0 L1646.0 641.0 L1648.0 641.0 L1650.0 641.0 L1652.0 641.0 L1654.0 640.0 L1656.0 640.0 L1658.0 640.0 L1660.0 640.0 L1662.0 640.0 L1664.0 640.0 L1666.0 640.0 L1668.0 640.0 L1670.0 640.0 L1672.0 640.0 L1674.0 640.0 L1676.0 640.0 L1678.0 640.0 L1680.0 640.0 L1682.0 640.0 L1684.0 640.0 L1686.0 640.0 L1688.0 640.0 L1690.0 640.0 L1692.0 640.0 L1694.0 640.0 L1696.0 640.0 L1698.0 640.0 L1700.0 640.0 L1702.0 640.0 L1704.0 640.0 L1706.0 640.0"/>
      <path d="M40.0 981.0 L40.0 1255.0"/>
      <path d="M1707.0 640.0 L1707.0 1255.0"/>
      <path d="M40.0 1255.0 L1707.0 1255.0"/>
      <path d="M345.0 952.0 L1672.0 952.0"/>
      <path d="M285.0 1085.0 L1452.0 1085.0"/>
      <path d="M300.0 1058.0 L1452.0 1058.0"/>
    </g>
    <g class="detail" stroke-width="1.5" opacity="0.9">
      <path d="M1694.0 1255.0 L1693.0 1256.0 L1695.0 1257.0 L1695.0 1261.0 L1698.0 1262.0 L1699.0 1268.0 L1698.0 1257.0 L1695.0 1256.0"/>
      <path d="M666.0 1253.0 L665.0 1258.0 L662.0 1259.0 L663.0 1263.0 L661.0 1264.0 L669.0 1263.0 L669.0 1261.0 L666.0 1260.0 L666.0 1257.0 L668.0 1255.0 L666.0 1254.0"/>
      <path d="M1248.0 1246.0 L1248.0 1254.0 L1244.0 1256.0 L1230.0 1256.0 L1228.0 1252.0 L1229.0 1261.0 L1233.0 1259.0 L1234.0 1256.0 L1245.0 1256.0 L1249.0 1260.0 L1248.0 1249.0"/>
      <path d="M574.0 1233.0 L570.0 1234.0 L592.0 1234.0 L575.0 1233.0"/>
      <path d="M393.0 1232.0 L382.0 1234.0 L413.0 1233.0 L394.0 1232.0"/>
      <path d="M357.0 1231.0 L351.0 1232.0 L374.0 1232.0 L376.0 1235.0 L375.0 1232.0 L358.0 1232.0"/>
      <path d="M1680.0 1207.0 L1672.0 1209.0 L1661.0 1209.0 L1683.0 1209.0 L1683.0 1215.0 L1687.0 1232.0 L1687.0 1242.0 L1688.0 1240.0 L1684.0 1220.0 L1684.0 1211.0 L1683.0 1208.0 L1681.0 1208.0"/>
      <path d="M1642.0 1191.0 L1641.0 1196.0 L1645.0 1198.0 L1652.0 1198.0 L1654.0 1202.0 L1653.0 1194.0 L1646.0 1191.0"/>
      <path d="M664.0 1177.0 L663.0 1179.0 L658.0 1180.0 L656.0 1184.0 L670.0 1182.0 L672.0 1187.0 L677.0 1186.0 L673.0 1187.0 L673.0 1183.0 L665.0 1180.0 L666.0 1177.0"/>
      <path d="M1482.0 1171.0 L1480.0 1174.0 L1482.0 1185.0 L1478.0 1187.0 L1478.0 1189.0 L1482.0 1186.0 L1481.0 1172.0 L1488.0 1171.0"/>
      <path d="M1628.0 1168.0 L1629.0 1173.0 L1639.0 1181.0 L1640.0 1189.0 L1639.0 1180.0 L1629.0 1172.0 L1629.0 1169.0"/>
      <path d="M636.0 1159.0 L636.0 1162.0 L633.0 1164.0 L633.0 1166.0 L637.0 1167.0 L638.0 1169.0 L641.0 1160.0 L648.0 1160.0 L643.0 1159.0"/>
      <path d="M49.0 1153.0 L45.0 1155.0 L47.0 1156.0 L47.0 1159.0 L42.0 1168.0 L44.0 1170.0 L43.0 1166.0 L52.0 1161.0 L52.0 1153.0"/>
      <path d="M1526.0 1144.0 L1525.0 1147.0 L1531.0 1147.0 L1532.0 1149.0 L1542.0 1153.0 L1548.0 1153.0 L1549.0 1151.0 L1547.0 1153.0 L1542.0 1153.0 L1533.0 1149.0 L1532.0 1147.0 L1528.0 1147.0 L1527.0 1144.0"/>
      <path d="M1555.0 1138.0 L1555.0 1146.0 L1564.0 1148.0 L1559.0 1147.0 L1555.0 1140.0"/>
      <path d="M768.0 1118.0 L766.0 1136.0 L767.0 1142.0 L766.0 1136.0 L768.0 1122.0"/>
      <path d="M758.0 1092.0 L758.0 1121.0 L756.0 1129.0 L757.0 1135.0 L755.0 1140.0 L756.0 1147.0 L758.0 1121.0 L757.0 1095.0 L759.0 1092.0"/>
      <path d="M761.0 1085.0 L759.0 1087.0 L760.0 1090.0 L762.0 1090.0 L763.0 1094.0 L766.0 1096.0 L763.0 1093.0 L763.0 1091.0 L765.0 1090.0 L761.0 1089.0 L761.0 1086.0 L764.0 1085.0"/>
      <path d="M694.0 1084.0 L692.0 1100.0 L693.0 1114.0 L693.0 1086.0 L695.0 1084.0 L719.0 1084.0"/>
      <path d="M616.0 1084.0 L612.0 1085.0 L611.0 1088.0 L609.0 1149.0 L606.0 1184.0 L607.0 1203.0 L611.0 1203.0 L608.0 1203.0 L606.0 1201.0 L611.0 1088.0 L613.0 1085.0 L616.0 1084.0 L636.0 1084.0"/>
      <path d="M849.0 1083.0 L950.0 1083.0 L850.0 1084.0"/>
      <path d="M402.0 1083.0 L400.0 1087.0 L400.0 1099.0 L395.0 1140.0 L395.0 1167.0 L391.0 1199.0 L394.0 1202.0 L399.0 1201.0 L393.0 1201.0 L391.0 1199.0 L395.0 1167.0 L395.0 1140.0 L401.0 1091.0 L400.0 1087.0 L403.0 1083.0 L437.0 1083.0 L439.0 1087.0 L440.0 1084.0 L437.0 1083.0"/>
      <path d="M1021.0 1082.0 L1004.0 1083.0 L1002.0 1085.0 L998.0 1085.0 L1002.0 1086.0 L1002.0 1092.0 L1002.0 1086.0 L1007.0 1083.0 L1030.0 1082.0 L1024.0 1082.0"/>
      <path d="M1224.0 1077.0 L1218.0 1078.0 L1238.0 1078.0 L1229.0 1077.0"/>
      <path d="M1321.0 1076.0 L1313.0 1077.0 L1334.0 1077.0 L1322.0 1077.0"/>
      <path d="M1497.0 1072.0 L1517.0 1073.0 L1517.0 1079.0 L1519.0 1081.0 L1520.0 1104.0 L1522.0 1108.0 L1521.0 1115.0 L1524.0 1128.0 L1524.0 1137.0 L1521.0 1138.0 L1521.0 1141.0 L1521.0 1139.0 L1524.0 1138.0 L1525.0 1142.0 L1522.0 1120.0 L1522.0 1108.0 L1520.0 1101.0 L1519.0 1081.0 L1517.0 1079.0 L1517.0 1072.0"/>
      <path d="M1483.0 1072.0 L1482.0 1087.0 L1484.0 1080.0 L1483.0 1073.0 L1491.0 1072.0"/>
      <path d="M1559.0 1069.0 L1590.0 1069.0 L1592.0 1071.0 L1601.0 1142.0 L1598.0 1143.0 L1596.0 1140.0 L1593.0 1139.0 L1593.0 1137.0 L1593.0 1140.0 L1595.0 1140.0 L1598.0 1144.0 L1601.0 1144.0 L1603.0 1146.0 L1603.0 1152.0 L1608.0 1153.0 L1603.0 1151.0 L1603.0 1146.0 L1600.0 1139.0 L1593.0 1072.0 L1591.0 1069.0"/>
      <path d="M1661.0 1066.0 L1632.0 1067.0 L1631.0 1071.0 L1633.0 1067.0 L1663.0 1066.0 L1665.0 1068.0 L1670.0 1095.0 L1672.0 1125.0 L1674.0 1130.0 L1674.0 1141.0 L1679.0 1173.0 L1676.0 1177.0 L1667.0 1177.0 L1677.0 1177.0 L1680.0 1174.0 L1678.0 1169.0 L1677.0 1153.0 L1674.0 1141.0 L1674.0 1130.0 L1672.0 1125.0 L1670.0 1095.0 L1666.0 1068.0 L1663.0 1066.0"/>
      <path d="M776.0 1013.0 L771.0 1016.0 L773.0 1018.0 L797.0 1018.0 L804.0 1014.0 L810.0 1013.0 L803.0 1014.0 L796.0 1018.0 L774.0 1018.0 L773.0 1015.0 L777.0 1013.0"/>
      <path d="M819.0 1008.0 L816.0 1012.0 L814.0 1012.0 L844.0 1012.0 L821.0 1012.0 L820.0 1009.0"/>
      <path d="M1166.0 1006.0 L1164.0 1007.0 L1164.0 1010.0 L1170.0 1013.0 L1176.0 1011.0 L1169.0 1012.0 L1169.0 1008.0 L1176.0 1007.0 L1177.0 1009.0 L1182.0 1009.0 L1178.0 1009.0 L1177.0 1006.0 L1168.0 1008.0"/>
      <path d="M1419.0 1004.0 L1400.0 1005.0 L1420.0 1004.0"/>
      <path d="M1159.0 1002.0 L1159.0 1008.0 L1157.0 1010.0 L1150.0 1010.0 L1152.0 1013.0 L1153.0 1010.0 L1156.0 1011.0 L1159.0 1009.0"/>
      <path d="M1591.0 1000.0 L1621.0 1000.0 L1592.0 1001.0"/>
      <path d="M707.0 960.0 L739.0 960.0 L741.0 963.0 L740.0 960.0"/>
      <path d="M1422.0 951.0 L1378.0 953.0 L1426.0 951.0"/>
      <path d="M1615.0 946.0 L1580.0 947.0 L1565.0 949.0 L1510.0 949.0 L1457.0 951.0 L1510.0 949.0 L1565.0 949.0 L1580.0 947.0 L1619.0 946.0"/>
      <path d="M934.0 940.0 L936.0 945.0 L949.0 945.0 L937.0 945.0 L935.0 941.0"/>
      <path d="M1639.0 939.0 L1627.0 941.0 L1646.0 940.0 L1640.0 940.0"/>
      <path d="M609.0 935.0 L620.0 935.0 L621.0 938.0 L615.0 943.0 L601.0 944.0 L599.0 939.0 L595.0 938.0 L596.0 935.0"/>
      <path d="M537.0 933.0 L535.0 938.0 L530.0 942.0 L535.0 947.0 L534.0 951.0 L489.0 952.0 L488.0 962.0 L489.0 953.0 L495.0 951.0 L578.0 952.0 L569.0 952.0 L565.0 949.0 L563.0 952.0 L557.0 950.0 L554.0 952.0 L543.0 950.0 L544.0 945.0 L548.0 941.0 L555.0 940.0 L542.0 943.0 L541.0 945.0 L539.0 945.0 L538.0 948.0 L536.0 948.0 L535.0 944.0 L538.0 943.0 L534.0 943.0 L533.0 940.0 L544.0 939.0 L541.0 939.0 L539.0 935.0"/>
      <path d="M623.0 932.0 L620.0 935.0 L603.0 935.0 L588.0 933.0 L579.0 935.0 L559.0 934.0 L583.0 934.0 L590.0 936.0 L594.0 935.0 L595.0 938.0 L598.0 940.0 L598.0 943.0 L600.0 944.0 L613.0 944.0 L623.0 937.0 L631.0 934.0 L623.0 936.0 L622.0 933.0"/>
      <path d="M1220.0 927.0 L1216.0 932.0 L1209.0 932.0 L1210.0 934.0 L1223.0 934.0 L1224.0 930.0 L1221.0 927.0"/>
      <path d="M1412.0 920.0 L1408.0 922.0 L1417.0 936.0 L1411.0 925.0 L1411.0 921.0 L1416.0 920.0"/>
      <path d="M1441.0 915.0 L1443.0 918.0 L1444.0 927.0 L1443.0 920.0 L1446.0 919.0 L1442.0 915.0"/>
      <path d="M454.0 906.0 L452.0 930.0 L453.0 918.0 L455.0 915.0 L453.0 908.0 L455.0 906.0"/>
      <path d="M977.0 893.0 L977.0 922.0 L975.0 924.0 L970.0 924.0 L977.0 923.0 L977.0 895.0"/>
      <path d="M939.0 893.0 L940.0 923.0 L949.0 924.0 L942.0 924.0 L940.0 922.0 L939.0 904.0"/>
      <path d="M644.0 893.0 L642.0 922.0 L645.0 926.0 L647.0 924.0 L654.0 925.0 L643.0 923.0 L644.0 903.0"/>
      <path d="M1115.0 891.0 L1113.0 896.0 L1115.0 900.0 L1114.0 916.0 L1116.0 923.0 L1120.0 924.0 L1121.0 922.0 L1117.0 923.0 L1115.0 921.0 L1115.0 892.0"/>
      <path d="M1056.0 889.0 L1055.0 905.0 L1057.0 902.0 L1056.0 890.0"/>
      <path d="M998.0 889.0 L998.0 920.0 L1000.0 924.0 L1003.0 924.0 L1003.0 922.0 L1000.0 923.0 L998.0 920.0 L998.0 891.0"/>
      <path d="M741.0 889.0 L741.0 918.0 L741.0 899.0"/>
      <path d="M880.0 887.0 L880.0 916.0 L880.0 889.0"/>
      <path d="M860.0 887.0 L858.0 891.0 L860.0 894.0 L859.0 922.0 L857.0 925.0 L850.0 925.0 L858.0 925.0 L859.0 922.0 L860.0 889.0"/>
      <path d="M564.0 887.0 L562.0 891.0 L562.0 913.0 L564.0 912.0 L562.0 911.0 L562.0 899.0 L564.0 888.0"/>
      <path d="M1034.0 885.0 L1034.0 891.0 L1036.0 894.0 L1036.0 918.0 L1034.0 923.0 L1025.0 924.0 L1035.0 923.0 L1036.0 894.0 L1034.0 891.0 L1034.0 886.0"/>
      <path d="M526.0 883.0 L526.0 895.0 L524.0 901.0 L525.0 906.0 L523.0 917.0 L525.0 923.0 L533.0 924.0 L534.0 926.0 L533.0 924.0 L527.0 924.0 L524.0 921.0 L524.0 907.0 L526.0 895.0"/>
      <path d="M1509.0 882.0 L1510.0 897.0 L1510.0 883.0"/>
      <path d="M1206.0 882.0 L1206.0 887.0 L1208.0 888.0 L1207.0 900.0 L1209.0 905.0 L1209.0 914.0 L1205.0 915.0 L1207.0 921.0 L1209.0 922.0 L1208.0 887.0 L1206.0 884.0"/>
      <path d="M1261.0 881.0 L1261.0 887.0 L1265.0 888.0 L1267.0 903.0 L1266.0 908.0 L1264.0 909.0 L1266.0 910.0 L1266.0 920.0 L1263.0 921.0 L1264.0 922.0 L1266.0 921.0 L1267.0 903.0 L1265.0 888.0 L1261.0 885.0"/>
      <path d="M586.0 878.0 L586.0 888.0 L584.0 893.0 L583.0 923.0 L601.0 924.0 L585.0 924.0 L583.0 922.0 L584.0 893.0 L586.0 888.0"/>
      <path d="M1092.0 867.0 L1091.0 889.0 L1094.0 892.0 L1095.0 919.0 L1093.0 922.0 L1089.0 923.0 L1097.0 920.0 L1100.0 923.0 L1107.0 925.0 L1107.0 920.0 L1101.0 923.0 L1095.0 919.0 L1094.0 890.0 L1092.0 888.0"/>
      <path d="M1483.0 865.0 L1484.0 873.0 L1486.0 876.0 L1486.0 882.0 L1489.0 888.0 L1489.0 918.0 L1484.0 918.0 L1491.0 917.0 L1491.0 913.0 L1489.0 907.0 L1489.0 888.0 L1486.0 882.0 L1486.0 876.0 L1483.0 869.0"/>
      <path d="M743.0 860.0 L745.0 869.0 L744.0 877.0 L748.0 880.0 L749.0 877.0 L752.0 877.0 L750.0 874.0 L751.0 871.0 L748.0 877.0 L744.0 875.0 L744.0 872.0 L746.0 870.0 L744.0 868.0 L744.0 861.0"/>
      <path d="M1205.0 851.0 L1206.0 878.0 L1205.0 858.0"/>
      <path d="M647.0 849.0 L645.0 891.0 L647.0 851.0"/>
      <path d="M588.0 834.0 L588.0 851.0 L585.0 870.0 L588.0 873.0 L588.0 877.0 L588.0 873.0 L586.0 871.0 L588.0 851.0"/>
      <path d="M822.0 833.0 L821.0 923.0 L826.0 925.0 L830.0 924.0 L832.0 926.0 L833.0 925.0 L823.0 924.0 L821.0 922.0 L822.0 894.0"/>
      <path d="M1091.0 816.0 L1091.0 826.0 L1089.0 827.0 L1091.0 834.0 L1091.0 863.0 L1091.0 818.0"/>
      <path d="M1032.0 809.0 L1033.0 836.0 L1033.0 810.0"/>
      <path d="M975.0 808.0 L976.0 823.0 L976.0 808.0"/>
      <path d="M1315.0 807.0 L1317.0 818.0 L1316.0 832.0 L1319.0 837.0 L1319.0 860.0 L1324.0 905.0 L1324.0 919.0 L1319.0 920.0 L1322.0 921.0 L1325.0 918.0 L1320.0 868.0 L1321.0 861.0 L1319.0 855.0 L1319.0 837.0 L1316.0 832.0 L1317.0 818.0 L1315.0 812.0"/>
      <path d="M1259.0 807.0 L1259.0 814.0 L1261.0 819.0 L1260.0 826.0 L1262.0 832.0 L1263.0 868.0 L1264.0 865.0 L1262.0 851.0 L1262.0 832.0 L1260.0 826.0 L1261.0 819.0 L1259.0 814.0"/>
      <path d="M1146.0 807.0 L1147.0 833.0 L1149.0 834.0 L1148.0 871.0 L1149.0 885.0 L1151.0 888.0 L1149.0 885.0 L1148.0 871.0 L1149.0 834.0 L1147.0 830.0 L1146.0 808.0"/>
      <path d="M1112.0 807.0 L1112.0 827.0 L1111.0 809.0 L1113.0 807.0"/>
      <path d="M1055.0 807.0 L1055.0 825.0 L1055.0 808.0"/>
      <path d="M939.0 807.0 L939.0 829.0 L939.0 821.0"/>
      <path d="M917.0 807.0 L918.0 827.0 L918.0 808.0"/>
      <path d="M881.0 807.0 L881.0 827.0 L881.0 808.0 L886.0 807.0"/>
      <path d="M858.0 807.0 L860.0 809.0 L859.0 827.0 L860.0 834.0 L862.0 836.0 L860.0 849.0 L862.0 836.0 L860.0 834.0 L859.0 827.0 L859.0 807.0"/>
      <path d="M800.0 807.0 L802.0 809.0 L801.0 829.0 L801.0 807.0"/>
      <path d="M766.0 807.0 L764.0 809.0 L764.0 831.0 L764.0 809.0 L767.0 807.0 L782.0 807.0"/>
      <path d="M649.0 807.0 L647.0 819.0 L647.0 841.0 L647.0 819.0 L649.0 808.0"/>
      <path d="M625.0 807.0 L627.0 809.0 L625.0 825.0 L627.0 814.0 L626.0 807.0"/>
      <path d="M1281.0 806.0 L1281.0 829.0 L1282.0 824.0 L1280.0 821.0 L1280.0 809.0 L1283.0 806.0"/>
      <path d="M1225.0 806.0 L1225.0 826.0 L1224.0 808.0 L1226.0 806.0"/>
      <path d="M709.0 806.0 L706.0 809.0 L707.0 814.0 L705.0 823.0 L706.0 849.0 L702.0 922.0 L706.0 925.0 L735.0 925.0 L739.0 924.0 L740.0 921.0 L738.0 924.0 L725.0 925.0 L704.0 924.0 L702.0 922.0 L706.0 849.0 L705.0 823.0 L707.0 808.0 L712.0 807.0 L710.0 807.0"/>
      <path d="M673.0 806.0 L683.0 807.0 L685.0 809.0 L684.0 818.0 L685.0 808.0 L674.0 806.0"/>
      <path d="M593.0 806.0 L590.0 807.0 L589.0 831.0 L590.0 808.0 L593.0 806.0 L601.0 806.0"/>
      <path d="M562.0 806.0 L566.0 806.0 L568.0 808.0 L568.0 821.0 L566.0 823.0 L567.0 824.0 L567.0 806.0"/>
      <path d="M1479.0 805.0 L1483.0 845.0 L1485.0 850.0 L1485.0 857.0 L1481.0 858.0 L1482.0 863.0 L1482.0 859.0 L1485.0 857.0 L1485.0 850.0 L1483.0 845.0 L1482.0 825.0 L1479.0 807.0"/>
      <path d="M1445.0 805.0 L1447.0 826.0 L1445.0 806.0 L1448.0 805.0"/>
      <path d="M1424.0 805.0 L1426.0 812.0 L1428.0 843.0 L1432.0 869.0 L1433.0 895.0 L1436.0 909.0 L1436.0 914.0 L1431.0 919.0 L1423.0 919.0 L1434.0 918.0 L1436.0 914.0 L1433.0 895.0 L1433.0 879.0 L1430.0 862.0 L1425.0 806.0"/>
      <path d="M1392.0 805.0 L1391.0 815.0 L1393.0 825.0 L1391.0 807.0 L1394.0 805.0"/>
      <path d="M1370.0 805.0 L1373.0 822.0 L1374.0 842.0 L1373.0 822.0 L1370.0 806.0"/>
      <path d="M1338.0 805.0 L1335.0 808.0 L1337.0 823.0 L1336.0 807.0 L1340.0 805.0"/>
      <path d="M1585.0 804.0 L1588.0 818.0 L1591.0 849.0 L1593.0 853.0 L1597.0 898.0 L1593.0 853.0 L1591.0 849.0 L1588.0 818.0 L1585.0 806.0"/>
      <path d="M1500.0 804.0 L1499.0 807.0 L1501.0 822.0 L1500.0 805.0 L1503.0 804.0"/>
      <path d="M1554.0 803.0 L1553.0 809.0 L1555.0 821.0 L1553.0 805.0 L1555.0 803.0 L1558.0 803.0"/>
      <path d="M1530.0 803.0 L1533.0 805.0 L1533.0 811.0 L1535.0 816.0 L1538.0 858.0 L1540.0 862.0 L1538.0 866.0 L1542.0 878.0 L1541.0 885.0 L1544.0 891.0 L1546.0 913.0 L1543.0 917.0 L1534.0 917.0 L1531.0 919.0 L1518.0 918.0 L1512.0 920.0 L1507.0 920.0 L1505.0 918.0 L1505.0 913.0 L1505.0 919.0 L1511.0 920.0 L1513.0 923.0 L1515.0 919.0 L1525.0 920.0 L1534.0 917.0 L1539.0 918.0 L1544.0 917.0 L1546.0 913.0 L1544.0 891.0 L1541.0 883.0 L1543.0 882.0 L1539.0 869.0 L1540.0 862.0 L1538.0 858.0 L1535.0 816.0 L1533.0 811.0 L1533.0 804.0 L1531.0 804.0"/>
      <path d="M1636.0 802.0 L1639.0 806.0 L1639.0 812.0 L1641.0 816.0 L1641.0 826.0 L1643.0 830.0 L1643.0 838.0 L1645.0 844.0 L1644.0 847.0 L1650.0 881.0 L1649.0 886.0 L1651.0 891.0 L1653.0 913.0 L1651.0 915.0 L1630.0 917.0 L1644.0 915.0 L1649.0 916.0 L1652.0 915.0 L1654.0 912.0 L1645.0 853.0 L1643.0 830.0 L1641.0 826.0 L1641.0 816.0 L1639.0 812.0 L1639.0 806.0 L1637.0 803.0"/>
      <path d="M1222.0 785.0 L1221.0 790.0 L1225.0 799.0 L1224.0 795.0 L1227.0 794.0 L1227.0 788.0 L1224.0 785.0"/>
      <path d="M750.0 783.0 L748.0 785.0 L745.0 785.0 L744.0 796.0 L745.0 786.0 L750.0 784.0"/>
      <path d="M1442.0 782.0 L1444.0 797.0 L1444.0 785.0 L1442.0 784.0"/>
      <path d="M918.0 771.0 L918.0 799.0 L918.0 779.0"/>
      <path d="M823.0 771.0 L822.0 800.0 L823.0 785.0"/>
      <path d="M1165.0 770.0 L1166.0 794.0 L1165.0 774.0"/>
      <path d="M1109.0 768.0 L1111.0 799.0 L1109.0 774.0 L1110.0 769.0"/>
      <path d="M1052.0 768.0 L1051.0 789.0 L1053.0 791.0 L1054.0 799.0 L1052.0 783.0"/>
      <path d="M860.0 767.0 L860.0 796.0 L860.0 782.0"/>
      <path d="M975.0 766.0 L976.0 796.0 L975.0 770.0"/>
      <path d="M1201.0 765.0 L1201.0 799.0 L1201.0 779.0"/>
      <path d="M1032.0 764.0 L1031.0 767.0 L1033.0 769.0 L1033.0 792.0 L1033.0 769.0 L1031.0 765.0"/>
      <path d="M938.0 764.0 L938.0 797.0"/>
      <path d="M1255.0 763.0 L1257.0 768.0 L1258.0 796.0 L1256.0 798.0 L1252.0 798.0 L1258.0 797.0 L1256.0 764.0"/>
      <path d="M687.0 762.0 L686.0 782.0 L687.0 766.0"/>
      <path d="M1088.0 760.0 L1088.0 766.0 L1086.0 767.0 L1089.0 769.0 L1089.0 798.0 L1091.0 789.0 L1088.0 768.0"/>
      <path d="M708.0 759.0 L706.0 796.0 L708.0 768.0"/>
      <path d="M1143.0 758.0 L1146.0 780.0 L1146.0 798.0 L1146.0 780.0 L1143.0 761.0"/>
      <path d="M766.0 743.0 L766.0 774.0"/>
      <path d="M1196.0 737.0 L1198.0 759.0 L1199.0 752.0 L1197.0 750.0 L1196.0 742.0"/>
      <path d="M880.0 737.0 L881.0 799.0 L880.0 771.0 L882.0 769.0 L880.0 763.0"/>
      <path d="M1142.0 732.0 L1142.0 751.0 L1142.0 740.0"/>
      <path d="M1087.0 729.0 L1088.0 752.0 L1087.0 745.0"/>
      <path d="M824.0 722.0 L824.0 753.0"/>
      <path d="M368.0 722.0 L366.0 726.0 L353.0 725.0 L366.0 726.0 L369.0 725.0 L368.0 724.0"/>
      <path d="M595.0 720.0 L593.0 766.0 L591.0 773.0 L591.0 789.0 L589.0 791.0 L591.0 799.0 L591.0 773.0 L594.0 757.0 L593.0 751.0 L595.0 734.0"/>
      <path d="M709.0 718.0 L709.0 751.0 L709.0 724.0"/>
      <path d="M275.0 718.0 L273.0 719.0 L274.0 723.0 L272.0 725.0 L269.0 725.0 L278.0 724.0 L276.0 723.0 L276.0 720.0 L278.0 719.0 L276.0 719.0"/>
      <path d="M212.0 717.0 L209.0 720.0 L209.0 724.0 L210.0 719.0 L215.0 718.0 L216.0 723.0 L213.0 725.0 L216.0 725.0 L216.0 719.0 L213.0 718.0"/>
      <path d="M1361.0 714.0 L1363.0 729.0 L1362.0 738.0 L1365.0 741.0 L1364.0 754.0 L1366.0 757.0 L1365.0 763.0 L1367.0 767.0 L1369.0 796.0 L1365.0 756.0 L1366.0 744.0 L1362.0 738.0 L1363.0 729.0 L1361.0 721.0"/>
      <path d="M1625.0 711.0 L1627.0 722.0 L1626.0 731.0 L1630.0 742.0 L1633.0 763.0 L1632.0 768.0 L1635.0 776.0 L1635.0 785.0 L1637.0 790.0 L1636.0 795.0 L1638.0 794.0 L1638.0 792.0 L1636.0 789.0 L1635.0 776.0 L1633.0 772.0 L1633.0 757.0 L1630.0 748.0 L1630.0 742.0 L1626.0 731.0 L1626.0 712.0"/>
      <path d="M653.0 705.0 L651.0 723.0 L651.0 763.0 L649.0 774.0 L648.0 799.0 L649.0 774.0 L651.0 763.0 L651.0 723.0 L653.0 713.0"/>
      <path d="M1594.0 703.0 L1592.0 704.0 L1593.0 711.0 L1592.0 705.0 L1594.0 703.0 L1623.0 703.0 L1624.0 709.0 L1625.0 707.0 L1624.0 703.0 L1610.0 703.0"/>
      <path d="M1488.0 703.0 L1488.0 713.0 L1487.0 705.0 L1489.0 703.0 L1518.0 703.0 L1521.0 706.0 L1521.0 718.0 L1524.0 726.0 L1527.0 757.0 L1529.0 762.0 L1531.0 795.0 L1531.0 781.0 L1529.0 772.0 L1529.0 762.0 L1527.0 757.0 L1526.0 738.0 L1521.0 718.0 L1521.0 706.0 L1519.0 703.0"/>
      <path d="M1435.0 703.0 L1433.0 706.0 L1434.0 712.0 L1434.0 705.0 L1436.0 703.0 L1465.0 704.0 L1467.0 706.0 L1466.0 713.0 L1468.0 714.0 L1470.0 720.0 L1474.0 749.0 L1474.0 767.0 L1476.0 775.0 L1475.0 785.0 L1477.0 790.0 L1477.0 796.0 L1476.0 775.0 L1474.0 767.0 L1475.0 758.0 L1467.0 705.0 L1442.0 703.0"/>
      <path d="M1383.0 703.0 L1380.0 707.0 L1381.0 710.0 L1381.0 705.0 L1387.0 703.0 L1408.0 703.0 L1414.0 707.0 L1413.0 711.0 L1416.0 717.0 L1417.0 737.0 L1420.0 746.0 L1419.0 757.0 L1422.0 774.0 L1423.0 797.0 L1424.0 794.0 L1419.0 757.0 L1420.0 746.0 L1417.0 737.0 L1416.0 717.0 L1413.0 705.0 L1408.0 703.0"/>
      <path d="M1329.0 703.0 L1326.0 705.0 L1327.0 711.0 L1326.0 706.0 L1329.0 703.0 L1354.0 703.0 L1359.0 704.0 L1360.0 708.0 L1360.0 704.0 L1354.0 703.0"/>
      <path d="M1553.0 702.0 L1540.0 704.0 L1540.0 712.0 L1540.0 705.0 L1542.0 703.0 L1559.0 702.0 L1570.0 703.0 L1572.0 705.0 L1575.0 719.0 L1576.0 742.0 L1580.0 753.0 L1581.0 774.0 L1584.0 786.0 L1583.0 795.0 L1584.0 786.0 L1581.0 774.0 L1579.0 748.0 L1577.0 746.0 L1575.0 729.0 L1576.0 725.0 L1572.0 704.0 L1559.0 702.0"/>
      <path d="M1302.0 702.0 L1278.0 704.0 L1275.0 703.0 L1272.0 705.0 L1272.0 711.0 L1272.0 706.0 L1274.0 704.0 L1279.0 703.0 L1304.0 703.0 L1306.0 705.0 L1306.0 713.0 L1310.0 736.0 L1310.0 759.0 L1312.0 765.0 L1314.0 796.0 L1312.0 798.0 L1315.0 793.0 L1313.0 785.0 L1312.0 765.0 L1310.0 759.0 L1310.0 736.0 L1306.0 713.0 L1306.0 704.0 L1303.0 702.0"/>
      <path d="M1165.0 702.0 L1161.0 705.0 L1162.0 712.0 L1163.0 703.0 L1193.0 702.0 L1196.0 704.0 L1195.0 712.0 L1197.0 707.0 L1196.0 703.0 L1193.0 702.0 L1166.0 703.0"/>
      <path d="M1132.0 702.0 L1108.0 703.0 L1107.0 710.0 L1107.0 705.0 L1109.0 703.0 L1138.0 703.0 L1141.0 706.0 L1142.0 721.0 L1141.0 706.0 L1139.0 703.0 L1133.0 702.0"/>
      <path d="M1051.0 702.0 L1051.0 711.0 L1052.0 702.0 L1085.0 702.0 L1086.0 714.0 L1086.0 702.0"/>
      <path d="M1012.0 702.0 L1009.0 703.0 L1029.0 703.0 L1029.0 712.0 L1030.0 703.0 L1024.0 702.0"/>
      <path d="M770.0 702.0 L767.0 704.0 L767.0 712.0 L767.0 704.0 L770.0 702.0 L802.0 703.0 L804.0 705.0 L804.0 712.0 L803.0 703.0 L778.0 702.0"/>
      <path d="M711.0 702.0 L710.0 715.0 L710.0 704.0 L712.0 702.0 L742.0 702.0 L746.0 704.0 L746.0 709.0 L746.0 703.0 L742.0 702.0"/>
      <path d="M941.0 701.0 L939.0 702.0 L938.0 710.0 L938.0 706.0 L941.0 701.0 L972.0 702.0 L974.0 704.0 L974.0 713.0 L973.0 702.0 L945.0 701.0"/>
      <path d="M828.0 701.0 L825.0 703.0 L824.0 712.0 L825.0 704.0 L828.0 701.0 L857.0 701.0 L861.0 703.0 L861.0 713.0 L861.0 702.0 L844.0 701.0"/>
      <path d="M655.0 701.0 L654.0 703.0 L655.0 701.0 L687.0 701.0 L689.0 703.0 L689.0 708.0 L689.0 702.0 L687.0 701.0"/>
      <path d="M599.0 701.0 L596.0 703.0 L599.0 701.0 L631.0 701.0 L632.0 709.0 L632.0 701.0"/>
      <path d="M541.0 701.0 L539.0 703.0 L537.0 742.0 L539.0 704.0 L542.0 701.0 L574.0 702.0 L575.0 708.0 L575.0 702.0 L562.0 701.0"/>
      <path d="M896.0 700.0 L893.0 702.0 L882.0 702.0 L882.0 710.0 L882.0 703.0 L884.0 701.0 L908.0 701.0 L918.0 703.0 L918.0 714.0 L917.0 701.0 L909.0 702.0 L897.0 700.0"/>
      <path d="M439.0 682.0 L437.0 683.0 L435.0 691.0 L432.0 735.0 L429.0 747.0 L429.0 765.0 L423.0 816.0 L421.0 855.0 L415.0 907.0 L414.0 933.0 L412.0 940.0 L413.0 944.0 L411.0 954.0 L409.0 988.0 L406.0 1007.0 L407.0 1017.0 L425.0 1019.0 L409.0 1018.0 L407.0 1016.0 L406.0 1010.0 L415.0 923.0 L416.0 896.0 L419.0 879.0 L418.0 874.0 L421.0 855.0 L423.0 816.0 L430.0 758.0 L429.0 747.0 L432.0 735.0 L433.0 712.0 L435.0 705.0 L435.0 691.0 L436.0 686.0 L439.0 682.0 L471.0 683.0 L472.0 686.0 L470.0 687.0 L473.0 686.0 L473.0 683.0 L454.0 682.0"/>
    </g>
    <g class="structure" stroke-width="2.6">
      <path d="M40.0 981.0 L42.0 981.0 L44.0 981.0 L46.0 981.0 L48.0 981.0 L50.0 981.0 L52.0 981.0 L54.0 981.0 L56.0 981.0 L58.0 981.0 L60.0 981.0 L62.0 981.0 L64.0 981.0 L66.0 981.0 L68.0 981.0 L70.0 980.0 L72.0 977.0 L74.0 972.0 L76.0 964.0 L78.0 953.0 L80.0 941.0 L82.0 928.0 L84.0 914.0 L86.0 899.0 L88.0 886.0 L90.0 874.0 L92.0 863.0 L94.0 850.0 L96.0 836.0 L98.0 821.0 L100.0 806.0 L102.0 793.0 L104.0 782.0 L106.0 771.0 L108.0 760.0 L110.0 748.0 L112.0 735.0 L114.0 723.0 L116.0 712.0 L118.0 702.0 L120.0 693.0 L122.0 685.0 L124.0 676.0 L126.0 668.0 L128.0 659.0 L130.0 652.0 L132.0 646.0 L134.0 641.0 L136.0 638.0 L138.0 637.0 L140.0 636.0 L142.0 636.0 L144.0 636.0 L146.0 636.0 L148.0 636.0 L150.0 636.0 L152.0 636.0 L154.0 636.0 L156.0 636.0 L158.0 636.0 L160.0 636.0 L162.0 636.0 L164.0 636.0 L166.0 636.0 L168.0 636.0 L170.0 636.0 L172.0 636.0 L174.0 636.0 L176.0 636.0 L178.0 636.0 L180.0 636.0 L182.0 636.0 L184.0 636.0 L186.0 636.0 L188.0 636.0 L190.0 636.0 L192.0 636.0 L194.0 636.0 L196.0 636.0 L198.0 636.0 L200.0 636.0 L202.0 636.0 L204.0 636.0 L206.0 636.0 L208.0 636.0 L210.0 636.0 L212.0 636.0 L214.0 636.0 L216.0 636.0 L218.0 636.0 L220.0 636.0 L222.0 636.0 L224.0 636.0 L226.0 636.0 L228.0 636.0 L230.0 636.0 L232.0 636.0 L234.0 636.0 L236.0 636.0 L238.0 636.0 L240.0 636.0 L242.0 636.0 L244.0 636.0 L246.0 636.0 L248.0 636.0 L250.0 636.0 L252.0 636.0 L254.0 636.0 L256.0 637.0 L258.0 637.0 L260.0 637.0 L262.0 637.0 L264.0 637.0 L266.0 637.0 L268.0 637.0 L270.0 637.0 L272.0 637.0 L274.0 637.0 L276.0 637.0 L278.0 637.0 L280.0 637.0 L282.0 637.0 L284.0 637.0 L286.0 637.0 L288.0 637.0 L290.0 637.0 L292.0 637.0 L294.0 637.0 L296.0 637.0 L298.0 637.0 L300.0 637.0 L302.0 637.0 L304.0 637.0 L306.0 637.0 L308.0 637.0 L310.0 637.0 L312.0 637.0 L314.0 636.0 L316.0 636.0 L318.0 636.0 L320.0 636.0 L322.0 636.0 L324.0 636.0 L326.0 636.0 L328.0 636.0 L330.0 636.0 L332.0 636.0 L334.0 636.0 L336.0 636.0 L338.0 636.0 L340.0 636.0 L342.0 636.0 L344.0 636.0 L346.0 636.0 L348.0 636.0 L350.0 636.0 L352.0 636.0 L354.0 636.0 L356.0 636.0 L358.0 636.0 L360.0 636.0 L362.0 636.0 L364.0 636.0 L366.0 636.0 L368.0 636.0 L370.0 636.0 L372.0 636.0 L374.0 636.0 L376.0 636.0 L378.0 636.0 L380.0 636.0 L382.0 636.0 L384.0 635.0 L386.0 635.0 L388.0 635.0 L390.0 635.0 L392.0 635.0 L394.0 635.0 L396.0 635.0 L398.0 635.0 L400.0 635.0 L402.0 635.0 L404.0 635.0 L406.0 635.0 L408.0 635.0 L410.0 637.0 L412.0 639.0 L414.0 644.0 L416.0 649.0 L418.0 654.0 L420.0 656.0 L422.0 658.0 L424.0 658.0 L426.0 658.0 L428.0 658.0 L430.0 658.0 L432.0 658.0 L434.0 658.0 L436.0 658.0 L438.0 658.0 L440.0 658.0 L442.0 658.0 L444.0 658.0 L446.0 658.0 L448.0 658.0 L450.0 658.0 L452.0 658.0 L454.0 658.0 L456.0 658.0 L458.0 658.0 L460.0 658.0 L462.0 658.0 L464.0 658.0 L466.0 658.0 L468.0 658.0 L470.0 658.0 L472.0 658.0 L474.0 658.0 L476.0 658.0 L478.0 658.0 L480.0 658.0 L482.0 658.0 L484.0 658.0 L486.0 658.0 L488.0 658.0 L490.0 658.0 L492.0 658.0 L494.0 658.0 L496.0 658.0 L498.0 658.0 L500.0 658.0 L502.0 656.0 L504.0 654.0 L506.0 650.0 L508.0 644.0 L510.0 640.0 L512.0 637.0 L514.0 636.0 L516.0 635.0 L518.0 635.0 L520.0 635.0 L522.0 635.0 L524.0 635.0 L526.0 635.0 L528.0 635.0 L530.0 635.0 L532.0 635.0 L534.0 635.0 L536.0 635.0 L538.0 635.0 L540.0 635.0 L542.0 635.0 L544.0 635.0 L546.0 635.0 L548.0 635.0 L550.0 635.0 L552.0 636.0 L554.0 636.0 L556.0 636.0 L558.0 636.0 L560.0 636.0 L562.0 636.0 L564.0 636.0 L566.0 636.0 L568.0 636.0 L570.0 636.0 L572.0 636.0 L574.0 636.0 L576.0 636.0 L578.0 636.0 L580.0 636.0 L582.0 636.0 L584.0 636.0 L586.0 636.0 L588.0 636.0 L590.0 636.0 L592.0 636.0 L594.0 636.0 L596.0 636.0 L598.0 636.0 L600.0 636.0 L602.0 636.0 L604.0 636.0 L606.0 636.0 L608.0 636.0 L610.0 636.0 L612.0 636.0 L614.0 636.0 L616.0 636.0 L618.0 636.0 L620.0 636.0 L622.0 636.0 L624.0 636.0 L626.0 636.0 L628.0 636.0 L630.0 636.0 L632.0 636.0 L634.0 636.0 L636.0 636.0 L638.0 636.0 L640.0 636.0 L642.0 636.0 L644.0 636.0 L646.0 636.0 L648.0 636.0 L650.0 636.0 L652.0 636.0 L654.0 636.0 L656.0 636.0 L658.0 636.0 L660.0 636.0 L662.0 636.0 L664.0 636.0 L666.0 636.0 L668.0 636.0 L670.0 636.0 L672.0 636.0 L674.0 636.0 L676.0 636.0 L678.0 636.0 L680.0 636.0 L682.0 636.0 L684.0 636.0 L686.0 636.0 L688.0 636.0 L690.0 636.0 L692.0 636.0 L694.0 636.0 L696.0 636.0 L698.0 636.0 L700.0 636.0 L702.0 636.0 L704.0 636.0 L706.0 636.0 L708.0 636.0 L710.0 636.0 L712.0 636.0 L714.0 636.0 L716.0 636.0 L718.0 636.0 L720.0 636.0 L722.0 636.0 L724.0 636.0 L726.0 636.0 L728.0 636.0 L730.0 636.0 L732.0 636.0 L734.0 636.0 L736.0 636.0 L738.0 636.0 L740.0 636.0 L742.0 636.0 L744.0 636.0 L746.0 636.0 L748.0 636.0 L750.0 636.0 L752.0 636.0 L754.0 636.0 L756.0 636.0 L758.0 636.0 L760.0 636.0 L762.0 636.0 L764.0 636.0 L766.0 636.0 L768.0 636.0 L770.0 636.0 L772.0 636.0 L774.0 636.0 L776.0 636.0 L778.0 636.0 L780.0 636.0 L782.0 636.0 L784.0 636.0 L786.0 636.0 L788.0 636.0 L790.0 636.0 L792.0 636.0 L794.0 636.0 L796.0 636.0 L798.0 636.0 L800.0 636.0 L802.0 636.0 L804.0 636.0 L806.0 636.0 L808.0 637.0 L810.0 637.0 L812.0 637.0 L814.0 637.0 L816.0 637.0 L818.0 637.0 L820.0 637.0 L822.0 637.0 L824.0 637.0 L826.0 637.0 L828.0 637.0 L830.0 637.0 L832.0 636.0 L834.0 636.0 L836.0 636.0 L838.0 636.0 L840.0 636.0 L842.0 636.0 L844.0 636.0 L846.0 636.0 L848.0 636.0 L850.0 636.0 L852.0 636.0 L854.0 636.0 L856.0 636.0 L858.0 636.0 L860.0 636.0 L862.0 636.0 L864.0 637.0 L866.0 637.0 L868.0 637.0 L870.0 637.0 L872.0 637.0 L874.0 637.0 L876.0 637.0 L878.0 637.0 L880.0 637.0 L882.0 637.0 L884.0 637.0 L886.0 637.0 L888.0 637.0 L890.0 637.0 L892.0 637.0 L894.0 637.0 L896.0 637.0 L898.0 637.0 L900.0 637.0 L902.0 637.0 L904.0 637.0 L906.0 637.0 L908.0 637.0 L910.0 637.0 L912.0 637.0 L914.0 637.0 L916.0 637.0 L918.0 637.0 L920.0 637.0 L922.0 637.0 L924.0 637.0 L926.0 637.0 L928.0 638.0 L930.0 638.0 L932.0 638.0 L934.0 638.0 L936.0 638.0 L938.0 638.0 L940.0 638.0 L942.0 638.0 L944.0 638.0 L946.0 638.0 L948.0 638.0 L950.0 638.0 L952.0 638.0 L954.0 638.0 L956.0 638.0 L958.0 638.0 L960.0 638.0 L962.0 638.0 L964.0 638.0 L966.0 638.0 L968.0 638.0 L970.0 638.0 L972.0 638.0 L974.0 638.0 L976.0 638.0 L978.0 638.0 L980.0 638.0 L982.0 638.0 L984.0 638.0 L986.0 638.0 L988.0 638.0 L990.0 638.0 L992.0 638.0 L994.0 638.0 L996.0 638.0 L998.0 638.0 L1000.0 638.0 L1002.0 638.0 L1004.0 638.0 L1006.0 638.0 L1008.0 638.0 L1010.0 638.0 L1012.0 638.0 L1014.0 638.0 L1016.0 638.0 L1018.0 638.0 L1020.0 638.0 L1022.0 638.0 L1024.0 638.0 L1026.0 638.0 L1028.0 638.0 L1030.0 638.0 L1032.0 638.0 L1034.0 638.0 L1036.0 638.0 L1038.0 638.0 L1040.0 638.0 L1042.0 638.0 L1044.0 638.0 L1046.0 638.0 L1048.0 638.0 L1050.0 638.0 L1052.0 638.0 L1054.0 638.0 L1056.0 638.0 L1058.0 638.0 L1060.0 638.0 L1062.0 638.0 L1064.0 638.0 L1066.0 638.0 L1068.0 638.0 L1070.0 638.0 L1072.0 638.0 L1074.0 638.0 L1076.0 638.0 L1078.0 638.0 L1080.0 638.0 L1082.0 638.0 L1084.0 638.0 L1086.0 638.0 L1088.0 638.0 L1090.0 638.0 L1092.0 638.0 L1094.0 638.0 L1096.0 638.0 L1098.0 638.0 L1100.0 638.0 L1102.0 638.0 L1104.0 638.0 L1106.0 638.0 L1108.0 638.0 L1110.0 638.0 L1112.0 638.0 L1114.0 638.0 L1116.0 638.0 L1118.0 638.0 L1120.0 638.0 L1122.0 638.0 L1124.0 638.0 L1126.0 638.0 L1128.0 638.0 L1130.0 638.0 L1132.0 638.0 L1134.0 638.0 L1136.0 638.0 L1138.0 638.0 L1140.0 638.0 L1142.0 638.0 L1144.0 638.0 L1146.0 638.0 L1148.0 638.0 L1150.0 638.0 L1152.0 638.0 L1154.0 638.0 L1156.0 638.0 L1158.0 638.0 L1160.0 638.0 L1162.0 638.0 L1164.0 638.0 L1166.0 638.0 L1168.0 638.0 L1170.0 638.0 L1172.0 638.0 L1174.0 638.0 L1176.0 638.0 L1178.0 639.0 L1180.0 639.0 L1182.0 639.0 L1184.0 639.0 L1186.0 639.0 L1188.0 639.0 L1190.0 639.0 L1192.0 639.0 L1194.0 639.0 L1196.0 639.0 L1198.0 639.0 L1200.0 639.0 L1202.0 639.0 L1204.0 639.0 L1206.0 639.0 L1208.0 639.0 L1210.0 639.0 L1212.0 639.0 L1214.0 639.0 L1216.0 639.0 L1218.0 639.0 L1220.0 639.0 L1222.0 639.0 L1224.0 639.0 L1226.0 639.0 L1228.0 639.0 L1230.0 639.0 L1232.0 639.0 L1234.0 639.0 L1236.0 639.0 L1238.0 639.0 L1240.0 639.0 L1242.0 639.0 L1244.0 639.0 L1246.0 639.0 L1248.0 639.0 L1250.0 639.0 L1252.0 639.0 L1254.0 639.0 L1256.0 639.0 L1258.0 639.0 L1260.0 639.0 L1262.0 639.0 L1264.0 639.0 L1266.0 639.0 L1268.0 639.0 L1270.0 639.0 L1272.0 639.0 L1274.0 639.0 L1276.0 639.0 L1278.0 639.0 L1280.0 639.0 L1282.0 639.0 L1284.0 639.0 L1286.0 639.0 L1288.0 639.0 L1290.0 639.0 L1292.0 639.0 L1294.0 639.0 L1296.0 639.0 L1298.0 639.0 L1300.0 639.0 L1302.0 639.0 L1304.0 639.0 L1306.0 639.0 L1308.0 639.0 L1310.0 639.0 L1312.0 639.0 L1314.0 639.0 L1316.0 639.0 L1318.0 639.0 L1320.0 639.0 L1322.0 639.0 L1324.0 639.0 L1326.0 639.0 L1328.0 639.0 L1330.0 639.0 L1332.0 639.0 L1334.0 639.0 L1336.0 639.0 L1338.0 639.0 L1340.0 639.0 L1342.0 639.0 L1344.0 639.0 L1346.0 639.0 L1348.0 639.0 L1350.0 639.0 L1352.0 639.0 L1354.0 639.0 L1356.0 639.0 L1358.0 639.0 L1360.0 639.0 L1362.0 639.0 L1364.0 639.0 L1366.0 639.0 L1368.0 639.0 L1370.0 639.0 L1372.0 639.0 L1374.0 639.0 L1376.0 639.0 L1378.0 639.0 L1380.0 639.0 L1382.0 639.0 L1384.0 639.0 L1386.0 639.0 L1388.0 639.0 L1390.0 639.0 L1392.0 639.0 L1394.0 639.0 L1396.0 639.0 L1398.0 639.0 L1400.0 639.0 L1402.0 639.0 L1404.0 639.0 L1406.0 639.0 L1408.0 639.0 L1410.0 639.0 L1412.0 639.0 L1414.0 639.0 L1416.0 639.0 L1418.0 638.0 L1420.0 638.0 L1422.0 638.0 L1424.0 638.0 L1426.0 639.0 L1428.0 639.0 L1430.0 639.0 L1432.0 639.0 L1434.0 639.0 L1436.0 639.0 L1438.0 639.0 L1440.0 639.0 L1442.0 639.0 L1444.0 639.0 L1446.0 639.0 L1448.0 639.0 L1450.0 639.0 L1452.0 639.0 L1454.0 639.0 L1456.0 639.0 L1458.0 639.0 L1460.0 639.0 L1462.0 639.0 L1464.0 639.0 L1466.0 639.0 L1468.0 639.0 L1470.0 639.0 L1472.0 639.0 L1474.0 639.0 L1476.0 639.0 L1478.0 639.0 L1480.0 639.0 L1482.0 639.0 L1484.0 639.0 L1486.0 639.0 L1488.0 639.0 L1490.0 640.0 L1492.0 640.0 L1494.0 640.0 L1496.0 640.0 L1498.0 640.0 L1500.0 640.0 L1502.0 640.0 L1504.0 640.0 L1506.0 640.0 L1508.0 640.0 L1510.0 640.0 L1512.0 640.0 L1514.0 640.0 L1516.0 640.0 L1518.0 640.0 L1520.0 640.0 L1522.0 640.0 L1524.0 640.0 L1526.0 640.0 L1528.0 641.0 L1530.0 641.0 L1532.0 641.0 L1534.0 641.0 L1536.0 641.0 L1538.0 641.0 L1540.0 641.0 L1542.0 641.0 L1544.0 641.0 L1546.0 641.0 L1548.0 641.0 L1550.0 641.0 L1552.0 641.0 L1554.0 641.0 L1556.0 641.0 L1558.0 641.0 L1560.0 641.0 L1562.0 641.0 L1564.0 641.0 L1566.0 641.0 L1568.0 641.0 L1570.0 641.0 L1572.0 641.0 L1574.0 641.0 L1576.0 641.0 L1578.0 641.0 L1580.0 641.0 L1582.0 641.0 L1584.0 641.0 L1586.0 641.0 L1588.0 641.0 L1590.0 641.0 L1592.0 641.0 L1594.0 641.0 L1596.0 641.0 L1598.0 641.0 L1600.0 641.0 L1602.0 641.0 L1604.0 641.0 L1606.0 641.0 L1608.0 641.0 L1610.0 641.0 L1612.0 641.0 L1614.0 641.0 L1616.0 641.0 L1618.0 641.0 L1620.0 641.0 L1622.0 641.0 L1624.0 641.0 L1626.0 641.0 L1628.0 641.0 L1630.0 641.0 L1632.0 641.0 L1634.0 641.0 L1636.0 641.0 L1638.0 641.0 L1640.0 641.0 L1642.0 641.0 L1644.0 641.0 L1646.0 641.0 L1648.0 641.0 L1650.0 641.0 L1652.0 641.0 L1654.0 640.0 L1656.0 640.0 L1658.0 640.0 L1660.0 640.0 L1662.0 640.0 L1664.0 640.0 L1666.0 640.0 L1668.0 640.0 L1670.0 640.0 L1672.0 640.0 L1674.0 640.0 L1676.0 640.0 L1678.0 640.0 L1680.0 640.0 L1682.0 640.0 L1684.0 640.0 L1686.0 640.0 L1688.0 640.0 L1690.0 640.0 L1692.0 640.0 L1694.0 640.0 L1696.0 640.0 L1698.0 640.0 L1700.0 640.0 L1702.0 640.0 L1704.0 640.0 L1706.0 640.0"/>
      <path d="M40.0 981.0 L40.0 1255.0"/>
      <path d="M1707.0 640.0 L1707.0 1255.0"/>
      <path d="M40.0 1255.0 L1707.0 1255.0"/>
      <path d="M345.0 952.0 L1672.0 952.0"/>
      <path d="M285.0 1085.0 L1452.0 1085.0"/>
      <path d="M300.0 1058.0 L1452.0 1058.0"/>
    </g>
  </g>
</svg>