<svg xmlns="http://www.w3.org/2000/svg" viewBox="0 0 2094 396"
     role="img" aria-label="Anhui University of Science &amp; Technology — chalk doodle"
     style="color:#f4f1ea">
  <defs>
  <filter id="chalk" x="-6%" y="-18%" width="112%" height="136%" color-interpolation-filters="sRGB">
    <!-- hand-drawn wobble of the edges -->
    <feTurbulence type="fractalNoise" baseFrequency="0.012 0.018" numOctaves="3" seed="11" result="warp"/>
    <feDisplacementMap in="SourceGraphic" in2="warp" scale="7"
        xChannelSelector="R" yChannelSelector="G" result="rough"/>
    <!-- chalk grain: erode the fill into a dusty texture -->
    <feTurbulence type="fractalNoise" baseFrequency="0.5 0.6" numOctaves="2" seed="4" result="grain"/>
    <feColorMatrix in="grain" type="matrix"
        values="0 0 0 0 0  0 0 0 0 0  0 0 0 0 0  0 0 0 0.7 0.45" result="grainA"/>
    <feComposite in="rough" in2="grainA" operator="in" result="chalked"/>
    <!-- faint soften so it reads like pressed chalk -->
    <feGaussianBlur in="chalked" stdDeviation="0.35"/>
  </filter>
  </defs>
  <path d="M1683.0,372.0 1681.0,370.0 1677.0,370.0 1676.0,371.0 1675.0,371.0 1672.0,374.0 1672.0,376.0 1674.0,378.0 1679.0,378.0 1680.0,377.0 1681.0,377.0 1683.0,375.0Z M1376.0,372.0 1374.0,370.0 1371.0,370.0 1370.0,371.0 1369.0,371.0 1368.0,372.0 1367.0,372.0 1366.0,373.0 1366.0,377.0 1367.0,377.0 1368.0,378.0 1371.0,378.0 1372.0,377.0 1373.0,377.0 1375.0,375.0 1375.0,374.0 1376.0,373.0Z M906.0,372.0 904.0,370.0 902.0,370.0 901.0,371.0 900.0,371.0 897.0,374.0 897.0,377.0 898.0,377.0 899.0,378.0 903.0,378.0 906.0,375.0Z M524.0,370.0 523.0,371.0 523.0,372.0 522.0,373.0 522.0,376.0 524.0,378.0 530.0,378.0 532.0,376.0 532.0,372.0 531.0,371.0 530.0,371.0 529.0,370.0Z M1510.0,368.0 1507.0,368.0 1504.0,371.0 1503.0,371.0 1500.0,374.0 1500.0,377.0 1501.0,378.0 1502.0,378.0 1503.0,379.0 1504.0,379.0 1505.0,378.0 1508.0,378.0 1509.0,377.0 1510.0,377.0 1511.0,376.0 1511.0,374.0 1512.0,373.0 1512.0,371.0 1511.0,370.0 1511.0,369.0Z M758.0,368.0 755.0,371.0 755.0,372.0 754.0,373.0 754.0,376.0 756.0,378.0 759.0,378.0 761.0,376.0 761.0,372.0 760.0,371.0 760.0,370.0Z M1919.0,368.0 1918.0,368.0 1917.0,367.0 1916.0,368.0 1915.0,368.0 1914.0,369.0 1913.0,369.0 1911.0,371.0 1910.0,371.0 1908.0,373.0 1907.0,373.0 1907.0,377.0 1908.0,378.0 1910.0,378.0 1911.0,379.0 1912.0,378.0 1916.0,378.0 1917.0,377.0 1918.0,377.0 1918.0,376.0 1919.0,375.0Z M1230.0,368.0 1230.0,370.0 1229.0,371.0 1229.0,373.0 1230.0,374.0 1230.0,376.0 1231.0,377.0 1232.0,377.0 1233.0,378.0 1240.0,378.0 1241.0,377.0 1242.0,377.0 1242.0,374.0 1239.0,371.0 1238.0,371.0 1234.0,367.0 1231.0,367.0Z M961.0,367.0 960.0,368.0 960.0,375.0 962.0,377.0 963.0,377.0 964.0,378.0 971.0,378.0 972.0,377.0 972.0,374.0 966.0,368.0 965.0,368.0 964.0,367.0Z M489.0,361.0 488.0,361.0 487.0,360.0 483.0,360.0 481.0,362.0 481.0,364.0 480.0,365.0 480.0,368.0 474.0,374.0 474.0,375.0 475.0,376.0 475.0,377.0 476.0,378.0 483.0,378.0 485.0,376.0 485.0,372.0 486.0,371.0 486.0,368.0 490.0,364.0 490.0,362.0Z M2007.0,359.0 2006.0,360.0 2004.0,360.0 2003.0,361.0 2003.0,362.0 2002.0,363.0 2002.0,365.0 2003.0,366.0 2003.0,377.0 2004.0,377.0 2005.0,378.0 2011.0,378.0 2012.0,377.0 2013.0,377.0 2015.0,375.0 2015.0,373.0 2016.0,372.0 2016.0,362.0 2014.0,360.0 2012.0,360.0 2011.0,359.0Z M1857.0,336.0 1856.0,337.0 1856.0,338.0 1857.0,339.0 1857.0,340.0 1858.0,341.0 1858.0,342.0 1859.0,343.0 1859.0,344.0 1860.0,345.0 1860.0,346.0 1864.0,350.0 1864.0,352.0 1865.0,353.0 1865.0,361.0 1864.0,362.0 1864.0,363.0 1862.0,365.0 1862.0,366.0 1860.0,368.0 1860.0,369.0 1859.0,370.0 1859.0,372.0 1858.0,373.0 1858.0,377.0 1859.0,377.0 1860.0,378.0 1863.0,378.0 1864.0,377.0 1867.0,377.0 1871.0,373.0 1871.0,371.0 1872.0,370.0 1872.0,369.0 1876.0,365.0 1876.0,364.0 1877.0,363.0 1877.0,361.0 1878.0,360.0 1878.0,354.0 1877.0,353.0 1877.0,350.0 1872.0,345.0 1872.0,344.0 1871.0,343.0 1871.0,342.0 1865.0,336.0Z M1818.0,336.0 1817.0,337.0 1817.0,341.0 1818.0,342.0 1818.0,343.0 1820.0,345.0 1821.0,345.0 1822.0,344.0 1822.0,343.0 1823.0,342.0 1823.0,337.0 1822.0,336.0Z M1275.0,337.0 1273.0,339.0 1273.0,340.0 1272.0,341.0 1272.0,342.0 1271.0,343.0 1271.0,344.0 1266.0,349.0 1266.0,351.0 1265.0,352.0 1265.0,362.0 1266.0,363.0 1266.0,364.0 1271.0,369.0 1271.0,371.0 1272.0,372.0 1272.0,374.0 1275.0,377.0 1277.0,377.0 1278.0,378.0 1281.0,378.0 1282.0,379.0 1283.0,379.0 1284.0,380.0 1285.0,380.0 1286.0,381.0 1291.0,381.0 1292.0,380.0 1293.0,380.0 1295.0,378.0 1297.0,378.0 1298.0,377.0 1301.0,377.0 1302.0,376.0 1303.0,376.0 1304.0,375.0 1304.0,373.0 1303.0,372.0 1298.0,372.0 1297.0,373.0 1296.0,373.0 1295.0,374.0 1294.0,374.0 1293.0,375.0 1291.0,375.0 1290.0,374.0 1289.0,374.0 1288.0,373.0 1287.0,373.0 1281.0,367.0 1281.0,366.0 1279.0,364.0 1279.0,363.0 1278.0,362.0 1278.0,351.0 1279.0,350.0 1279.0,349.0 1281.0,347.0 1281.0,346.0 1283.0,344.0 1283.0,343.0 1284.0,342.0 1284.0,341.0 1285.0,340.0 1285.0,337.0 1284.0,336.0 1277.0,336.0 1276.0,337.0Z M1252.0,336.0 1250.0,338.0 1250.0,339.0 1252.0,341.0 1252.0,342.0 1256.0,346.0 1257.0,346.0 1259.0,344.0 1259.0,337.0 1258.0,336.0Z M1236.0,336.0 1230.0,342.0 1230.0,345.0 1229.0,346.0 1229.0,348.0 1230.0,349.0 1230.0,351.0 1231.0,352.0 1231.0,353.0 1232.0,353.0 1235.0,356.0 1235.0,357.0 1237.0,359.0 1238.0,359.0 1239.0,360.0 1241.0,360.0 1242.0,361.0 1243.0,361.0 1244.0,362.0 1245.0,362.0 1248.0,365.0 1249.0,365.0 1252.0,368.0 1252.0,370.0 1249.0,373.0 1249.0,374.0 1248.0,375.0 1248.0,376.0 1250.0,378.0 1255.0,378.0 1256.0,377.0 1257.0,377.0 1259.0,375.0 1259.0,374.0 1260.0,373.0 1260.0,361.0 1259.0,360.0 1259.0,358.0 1257.0,356.0 1257.0,355.0 1256.0,355.0 1255.0,354.0 1254.0,354.0 1253.0,353.0 1251.0,353.0 1242.0,344.0 1242.0,337.0 1241.0,336.0Z M984.0,336.0 983.0,337.0 983.0,341.0 984.0,342.0 984.0,343.0 986.0,345.0 989.0,345.0 991.0,343.0 991.0,340.0 990.0,339.0 990.0,338.0 988.0,336.0Z M966.0,337.0 961.0,342.0 961.0,343.0 960.0,344.0 960.0,348.0 961.0,349.0 961.0,350.0 963.0,352.0 963.0,353.0 965.0,355.0 965.0,356.0 968.0,359.0 969.0,359.0 970.0,360.0 972.0,360.0 973.0,361.0 974.0,361.0 977.0,364.0 978.0,364.0 982.0,368.0 982.0,369.0 983.0,370.0 982.0,371.0 982.0,377.0 988.0,377.0 994.0,371.0 994.0,370.0 995.0,369.0 995.0,365.0 994.0,364.0 994.0,363.0 993.0,362.0 993.0,361.0 990.0,358.0 990.0,357.0 987.0,354.0 986.0,354.0 985.0,353.0 983.0,353.0 982.0,352.0 981.0,352.0 978.0,349.0 977.0,349.0 972.0,344.0 972.0,337.0 971.0,336.0 968.0,336.0 967.0,337.0Z M786.0,336.0 784.0,338.0 784.0,339.0 785.0,340.0 785.0,341.0 786.0,342.0 786.0,343.0 788.0,345.0 789.0,345.0 790.0,344.0 790.0,343.0 791.0,342.0 791.0,337.0 790.0,336.0Z M739.0,336.0 738.0,337.0 738.0,342.0 739.0,343.0 739.0,344.0 740.0,345.0 740.0,346.0 741.0,346.0 741.0,345.0 743.0,343.0 743.0,342.0 744.0,341.0 744.0,338.0 742.0,336.0Z M494.0,336.0 491.0,339.0 491.0,341.0 490.0,342.0 490.0,343.0 489.0,344.0 489.0,346.0 488.0,347.0 488.0,352.0 489.0,353.0 490.0,353.0 491.0,354.0 493.0,354.0 496.0,357.0 496.0,360.0 495.0,361.0 495.0,364.0 496.0,365.0 496.0,367.0 497.0,368.0 497.0,370.0 498.0,371.0 498.0,373.0 499.0,374.0 499.0,375.0 501.0,377.0 503.0,377.0 504.0,378.0 513.0,378.0 515.0,376.0 515.0,373.0 511.0,369.0 511.0,368.0 510.0,367.0 510.0,363.0 509.0,362.0 509.0,360.0 507.0,358.0 507.0,357.0 505.0,355.0 505.0,354.0 504.0,353.0 504.0,349.0 503.0,348.0 503.0,345.0 502.0,344.0 502.0,343.0 499.0,340.0 499.0,339.0 497.0,337.0 496.0,337.0 495.0,336.0Z M2060.0,335.0 2059.0,335.0 2058.0,336.0 2056.0,336.0 2054.0,338.0 2054.0,340.0 2053.0,341.0 2054.0,342.0 2054.0,350.0 2055.0,349.0 2055.0,348.0 2056.0,347.0 2056.0,346.0 2059.0,343.0 2060.0,343.0 2063.0,340.0 2063.0,337.0 2062.0,336.0 2061.0,336.0Z M2029.0,335.0 2028.0,336.0 2027.0,336.0 2025.0,338.0 2025.0,340.0 2026.0,341.0 2026.0,342.0 2027.0,343.0 2027.0,344.0 2028.0,345.0 2028.0,346.0 2033.0,351.0 2033.0,354.0 2034.0,355.0 2034.0,357.0 2038.0,361.0 2038.0,362.0 2039.0,363.0 2039.0,369.0 2038.0,370.0 2038.0,371.0 2037.0,372.0 2037.0,376.0 2038.0,377.0 2039.0,377.0 2040.0,378.0 2049.0,378.0 2051.0,376.0 2051.0,375.0 2052.0,374.0 2052.0,354.0 2050.0,352.0 2049.0,352.0 2048.0,351.0 2047.0,351.0 2041.0,345.0 2041.0,344.0 2040.0,343.0 2040.0,339.0 2039.0,338.0 2039.0,337.0 2038.0,336.0 2037.0,336.0 2036.0,335.0Z M2004.0,336.0 2003.0,337.0 2003.0,341.0 2004.0,342.0 2004.0,343.0 2007.0,346.0 2008.0,346.0 2009.0,347.0 2013.0,347.0 2015.0,345.0 2015.0,344.0 2016.0,343.0 2016.0,340.0 2015.0,339.0 2015.0,338.0 2013.0,336.0 2012.0,336.0 2011.0,335.0 2007.0,335.0 2006.0,336.0Z M1950.0,335.0 1948.0,338.0 1955.0,345.0 1955.0,368.0 1949.0,374.0 1949.0,378.0 1950.0,378.0 1951.0,379.0 1955.0,379.0 1956.0,378.0 1958.0,378.0 1959.0,377.0 1960.0,377.0 1962.0,375.0 1962.0,374.0 1964.0,372.0 1965.0,372.0 1967.0,370.0 1967.0,369.0 1968.0,368.0 1968.0,363.0 1969.0,362.0 1969.0,360.0 1970.0,359.0 1971.0,359.0 1972.0,360.0 1972.0,362.0 1973.0,363.0 1973.0,366.0 1974.0,367.0 1974.0,369.0 1980.0,375.0 1980.0,376.0 1981.0,377.0 1982.0,377.0 1983.0,378.0 1986.0,378.0 1987.0,379.0 1989.0,379.0 1990.0,378.0 1991.0,378.0 1992.0,377.0 1992.0,374.0 1986.0,368.0 1986.0,346.0 1987.0,345.0 1987.0,344.0 1990.0,341.0 1991.0,341.0 1992.0,340.0 1992.0,336.0 1991.0,336.0 1990.0,335.0 1985.0,335.0 1984.0,336.0 1982.0,336.0 1979.0,339.0 1979.0,340.0 1975.0,344.0 1975.0,345.0 1974.0,346.0 1974.0,348.0 1973.0,349.0 1973.0,351.0 1972.0,352.0 1972.0,353.0 1971.0,354.0 1970.0,354.0 1968.0,351.0 1968.0,346.0 1967.0,345.0 1967.0,344.0 1966.0,343.0 1966.0,342.0 1965.0,342.0 1961.0,338.0 1961.0,337.0 1960.0,337.0 1957.0,335.0Z M1935.0,335.0 1934.0,336.0 1933.0,336.0 1926.0,343.0 1926.0,344.0 1925.0,345.0 1925.0,347.0 1924.0,348.0 1924.0,350.0 1923.0,351.0 1923.0,353.0 1922.0,354.0 1922.0,356.0 1921.0,357.0 1921.0,362.0 1922.0,363.0 1922.0,364.0 1923.0,365.0 1923.0,366.0 1925.0,368.0 1925.0,369.0 1933.0,377.0 1934.0,377.0 1935.0,378.0 1937.0,378.0 1938.0,379.0 1942.0,379.0 1943.0,378.0 1943.0,375.0 1939.0,371.0 1939.0,370.0 1938.0,369.0 1938.0,367.0 1937.0,366.0 1937.0,360.0 1936.0,359.0 1936.0,356.0 1937.0,355.0 1937.0,347.0 1938.0,346.0 1938.0,344.0 1944.0,338.0 1944.0,337.0 1942.0,335.0Z M1887.0,335.0 1886.0,336.0 1885.0,336.0 1883.0,338.0 1883.0,375.0 1886.0,378.0 1893.0,378.0 1894.0,377.0 1895.0,377.0 1896.0,376.0 1896.0,375.0 1897.0,374.0 1897.0,373.0 1896.0,372.0 1896.0,337.0 1895.0,336.0 1894.0,336.0 1893.0,335.0Z M1843.0,335.0 1842.0,336.0 1839.0,336.0 1836.0,339.0 1836.0,340.0 1835.0,341.0 1835.0,342.0 1833.0,344.0 1833.0,345.0 1830.0,348.0 1830.0,350.0 1829.0,351.0 1829.0,363.0 1830.0,364.0 1830.0,366.0 1831.0,367.0 1831.0,368.0 1834.0,371.0 1834.0,372.0 1835.0,373.0 1835.0,374.0 1838.0,377.0 1839.0,377.0 1840.0,378.0 1847.0,378.0 1848.0,377.0 1848.0,374.0 1847.0,373.0 1847.0,372.0 1843.0,368.0 1843.0,367.0 1842.0,366.0 1842.0,349.0 1843.0,348.0 1843.0,346.0 1848.0,341.0 1848.0,339.0 1849.0,338.0 1848.0,337.0 1848.0,336.0 1846.0,336.0 1845.0,335.0Z M1788.0,336.0 1787.0,337.0 1787.0,338.0 1786.0,339.0 1786.0,340.0 1787.0,341.0 1787.0,344.0 1788.0,345.0 1788.0,347.0 1794.0,353.0 1795.0,353.0 1796.0,354.0 1797.0,354.0 1799.0,356.0 1799.0,357.0 1802.0,360.0 1803.0,360.0 1805.0,362.0 1805.0,363.0 1810.0,368.0 1810.0,369.0 1811.0,370.0 1811.0,371.0 1812.0,372.0 1812.0,374.0 1815.0,377.0 1822.0,377.0 1823.0,376.0 1823.0,374.0 1824.0,373.0 1824.0,367.0 1823.0,366.0 1823.0,363.0 1822.0,362.0 1822.0,361.0 1814.0,353.0 1813.0,353.0 1811.0,351.0 1811.0,350.0 1805.0,344.0 1805.0,343.0 1803.0,341.0 1802.0,341.0 1800.0,339.0 1800.0,338.0 1798.0,336.0 1796.0,336.0 1795.0,335.0 1790.0,335.0 1789.0,336.0Z M1738.0,336.0 1736.0,338.0 1736.0,339.0 1737.0,340.0 1737.0,341.0 1738.0,342.0 1738.0,343.0 1739.0,344.0 1739.0,354.0 1738.0,355.0 1738.0,361.0 1739.0,362.0 1739.0,368.0 1738.0,369.0 1738.0,370.0 1737.0,371.0 1737.0,372.0 1736.0,373.0 1736.0,376.0 1737.0,377.0 1738.0,377.0 1739.0,378.0 1749.0,378.0 1751.0,376.0 1751.0,363.0 1752.0,362.0 1752.0,361.0 1756.0,357.0 1758.0,357.0 1759.0,358.0 1760.0,358.0 1762.0,360.0 1762.0,361.0 1763.0,362.0 1763.0,375.0 1766.0,378.0 1773.0,378.0 1776.0,375.0 1776.0,338.0 1774.0,336.0 1773.0,336.0 1772.0,335.0 1767.0,335.0 1766.0,336.0 1765.0,336.0 1763.0,338.0 1763.0,350.0 1762.0,351.0 1762.0,352.0 1758.0,356.0 1756.0,356.0 1752.0,352.0 1752.0,350.0 1751.0,349.0 1751.0,337.0 1750.0,336.0 1749.0,336.0 1748.0,335.0 1741.0,335.0 1740.0,336.0Z M1717.0,336.0 1715.0,338.0 1716.0,339.0 1716.0,340.0 1717.0,341.0 1718.0,341.0 1721.0,344.0 1721.0,345.0 1722.0,346.0 1723.0,346.0 1724.0,347.0 1725.0,347.0 1727.0,345.0 1727.0,344.0 1728.0,343.0 1728.0,339.0 1727.0,338.0 1727.0,337.0 1726.0,336.0 1724.0,336.0 1723.0,335.0 1720.0,335.0 1719.0,336.0Z M1698.0,336.0 1695.0,339.0 1694.0,339.0 1694.0,340.0 1692.0,342.0 1692.0,343.0 1691.0,344.0 1691.0,345.0 1686.0,350.0 1686.0,353.0 1685.0,354.0 1685.0,361.0 1686.0,362.0 1686.0,365.0 1687.0,366.0 1688.0,366.0 1691.0,369.0 1691.0,370.0 1692.0,371.0 1692.0,372.0 1693.0,373.0 1693.0,374.0 1695.0,376.0 1696.0,376.0 1697.0,377.0 1699.0,377.0 1700.0,378.0 1701.0,378.0 1702.0,379.0 1703.0,379.0 1704.0,380.0 1705.0,380.0 1706.0,381.0 1712.0,381.0 1714.0,379.0 1715.0,379.0 1716.0,378.0 1718.0,378.0 1719.0,377.0 1722.0,377.0 1723.0,376.0 1724.0,376.0 1725.0,375.0 1725.0,373.0 1724.0,372.0 1719.0,372.0 1718.0,373.0 1716.0,373.0 1715.0,374.0 1714.0,374.0 1713.0,375.0 1712.0,375.0 1711.0,374.0 1710.0,374.0 1709.0,373.0 1708.0,373.0 1703.0,368.0 1703.0,367.0 1699.0,363.0 1699.0,362.0 1698.0,361.0 1698.0,352.0 1699.0,351.0 1699.0,350.0 1703.0,346.0 1703.0,345.0 1704.0,344.0 1704.0,343.0 1705.0,342.0 1705.0,341.0 1706.0,340.0 1706.0,339.0 1707.0,338.0 1707.0,337.0 1706.0,336.0 1704.0,336.0 1703.0,335.0 1702.0,335.0 1701.0,336.0Z M1672.0,336.0 1671.0,337.0 1671.0,339.0 1673.0,341.0 1673.0,342.0 1674.0,343.0 1675.0,343.0 1676.0,344.0 1677.0,344.0 1679.0,342.0 1679.0,341.0 1680.0,340.0 1680.0,339.0 1679.0,338.0 1679.0,337.0 1678.0,336.0 1677.0,336.0 1676.0,335.0 1675.0,335.0 1674.0,336.0Z M1653.0,335.0 1652.0,336.0 1651.0,336.0 1649.0,338.0 1649.0,369.0 1648.0,370.0 1648.0,372.0 1647.0,373.0 1647.0,376.0 1648.0,377.0 1649.0,377.0 1650.0,378.0 1660.0,378.0 1662.0,376.0 1662.0,363.0 1664.0,361.0 1667.0,361.0 1668.0,362.0 1669.0,362.0 1670.0,363.0 1671.0,363.0 1672.0,362.0 1672.0,361.0 1673.0,360.0 1673.0,351.0 1672.0,350.0 1669.0,350.0 1668.0,351.0 1667.0,351.0 1666.0,352.0 1664.0,352.0 1662.0,350.0 1662.0,341.0 1663.0,340.0 1663.0,339.0 1662.0,338.0 1662.0,337.0 1661.0,336.0 1660.0,336.0 1659.0,335.0Z M1605.0,335.0 1604.0,336.0 1603.0,336.0 1601.0,338.0 1601.0,341.0 1602.0,342.0 1602.0,343.0 1606.0,343.0 1608.0,341.0 1611.0,341.0 1612.0,342.0 1612.0,343.0 1613.0,344.0 1613.0,375.0 1616.0,378.0 1624.0,378.0 1627.0,375.0 1627.0,372.0 1626.0,371.0 1626.0,343.0 1627.0,342.0 1627.0,341.0 1628.0,340.0 1631.0,340.0 1632.0,341.0 1633.0,341.0 1634.0,342.0 1637.0,342.0 1638.0,341.0 1639.0,341.0 1639.0,340.0 1640.0,339.0 1639.0,338.0 1639.0,337.0 1638.0,337.0 1637.0,336.0 1636.0,336.0 1635.0,335.0 1633.0,335.0 1632.0,336.0 1631.0,336.0 1630.0,337.0 1627.0,337.0 1626.0,336.0 1624.0,336.0 1623.0,335.0 1615.0,335.0 1614.0,336.0 1612.0,336.0 1611.0,337.0 1610.0,337.0 1609.0,336.0 1607.0,336.0 1606.0,335.0Z M1543.0,337.0 1543.0,338.0 1542.0,339.0 1542.0,342.0 1541.0,343.0 1541.0,344.0 1542.0,345.0 1542.0,351.0 1543.0,352.0 1543.0,354.0 1542.0,355.0 1542.0,356.0 1540.0,358.0 1539.0,358.0 1538.0,359.0 1537.0,359.0 1536.0,360.0 1536.0,361.0 1535.0,362.0 1535.0,365.0 1534.0,366.0 1534.0,370.0 1535.0,371.0 1535.0,374.0 1536.0,375.0 1536.0,376.0 1537.0,377.0 1538.0,377.0 1539.0,378.0 1542.0,378.0 1543.0,379.0 1547.0,379.0 1548.0,380.0 1550.0,380.0 1551.0,379.0 1552.0,379.0 1552.0,378.0 1554.0,376.0 1554.0,375.0 1556.0,373.0 1557.0,373.0 1560.0,376.0 1561.0,376.0 1562.0,377.0 1563.0,377.0 1564.0,378.0 1567.0,378.0 1568.0,379.0 1573.0,379.0 1574.0,378.0 1575.0,378.0 1577.0,376.0 1577.0,373.0 1575.0,371.0 1574.0,371.0 1573.0,370.0 1573.0,369.0 1571.0,367.0 1571.0,366.0 1569.0,364.0 1569.0,363.0 1567.0,361.0 1566.0,361.0 1565.0,360.0 1564.0,360.0 1560.0,356.0 1560.0,350.0 1563.0,347.0 1564.0,347.0 1565.0,346.0 1565.0,345.0 1566.0,344.0 1566.0,339.0 1565.0,338.0 1565.0,337.0 1564.0,336.0 1558.0,336.0 1557.0,337.0 1556.0,337.0 1555.0,336.0 1554.0,336.0 1553.0,335.0 1548.0,335.0 1547.0,336.0 1545.0,336.0 1544.0,337.0Z M1543.0,360.0 1544.0,359.0 1548.0,359.0 1549.0,360.0 1550.0,360.0 1553.0,363.0 1553.0,364.0 1554.0,365.0 1554.0,368.0 1555.0,369.0 1553.0,371.0 1551.0,371.0 1543.0,363.0Z M1499.0,337.0 1499.0,339.0 1501.0,341.0 1502.0,341.0 1504.0,343.0 1505.0,343.0 1507.0,345.0 1509.0,345.0 1510.0,344.0 1510.0,343.0 1511.0,342.0 1511.0,338.0 1510.0,337.0 1510.0,336.0 1509.0,336.0 1508.0,335.0 1502.0,335.0 1501.0,336.0 1500.0,336.0Z M1479.0,335.0 1478.0,336.0 1477.0,336.0 1476.0,337.0 1476.0,338.0 1475.0,339.0 1475.0,341.0 1476.0,342.0 1476.0,376.0 1478.0,378.0 1489.0,378.0 1490.0,377.0 1491.0,377.0 1492.0,376.0 1492.0,373.0 1489.0,370.0 1489.0,369.0 1488.0,368.0 1488.0,363.0 1489.0,362.0 1489.0,361.0 1491.0,359.0 1493.0,359.0 1494.0,360.0 1499.0,360.0 1500.0,359.0 1501.0,359.0 1501.0,354.0 1499.0,352.0 1495.0,352.0 1494.0,353.0 1490.0,353.0 1489.0,352.0 1489.0,351.0 1488.0,350.0 1488.0,345.0 1489.0,344.0 1489.0,343.0 1490.0,342.0 1490.0,341.0 1492.0,339.0 1492.0,337.0 1491.0,337.0 1490.0,336.0 1488.0,336.0 1487.0,335.0Z M1457.0,337.0 1457.0,340.0 1458.0,341.0 1458.0,342.0 1462.0,346.0 1463.0,346.0 1464.0,347.0 1467.0,347.0 1468.0,346.0 1469.0,346.0 1469.0,345.0 1470.0,344.0 1470.0,339.0 1469.0,338.0 1469.0,337.0 1468.0,336.0 1466.0,336.0 1465.0,335.0 1461.0,335.0 1460.0,336.0 1458.0,336.0Z M1436.0,336.0 1434.0,338.0 1434.0,339.0 1432.0,341.0 1432.0,342.0 1429.0,345.0 1429.0,346.0 1428.0,347.0 1428.0,349.0 1427.0,350.0 1427.0,365.0 1428.0,366.0 1428.0,368.0 1429.0,369.0 1429.0,370.0 1436.0,377.0 1437.0,377.0 1438.0,378.0 1442.0,378.0 1443.0,379.0 1445.0,379.0 1446.0,380.0 1448.0,380.0 1449.0,381.0 1451.0,381.0 1452.0,380.0 1453.0,380.0 1454.0,379.0 1455.0,379.0 1456.0,378.0 1457.0,378.0 1458.0,377.0 1461.0,377.0 1462.0,376.0 1463.0,376.0 1464.0,375.0 1464.0,374.0 1462.0,372.0 1460.0,372.0 1459.0,373.0 1458.0,373.0 1457.0,374.0 1456.0,374.0 1455.0,375.0 1454.0,375.0 1453.0,376.0 1452.0,376.0 1451.0,375.0 1450.0,375.0 1449.0,374.0 1448.0,374.0 1446.0,372.0 1445.0,372.0 1441.0,368.0 1441.0,367.0 1440.0,366.0 1440.0,347.0 1441.0,346.0 1441.0,345.0 1446.0,340.0 1446.0,337.0 1444.0,335.0 1440.0,335.0 1439.0,336.0Z M1416.0,335.0 1415.0,336.0 1414.0,336.0 1412.0,338.0 1412.0,339.0 1417.0,344.0 1419.0,344.0 1421.0,342.0 1421.0,337.0 1420.0,336.0 1419.0,336.0 1418.0,335.0Z M1385.0,336.0 1384.0,337.0 1384.0,342.0 1385.0,343.0 1385.0,345.0 1386.0,346.0 1386.0,347.0 1392.0,353.0 1393.0,353.0 1395.0,355.0 1396.0,355.0 1397.0,356.0 1397.0,357.0 1404.0,364.0 1404.0,365.0 1408.0,369.0 1408.0,370.0 1409.0,371.0 1409.0,373.0 1410.0,374.0 1410.0,375.0 1412.0,377.0 1413.0,377.0 1414.0,378.0 1418.0,378.0 1419.0,377.0 1420.0,377.0 1421.0,376.0 1421.0,374.0 1422.0,373.0 1422.0,370.0 1421.0,369.0 1421.0,366.0 1420.0,365.0 1420.0,364.0 1418.0,362.0 1418.0,361.0 1416.0,359.0 1416.0,358.0 1415.0,357.0 1415.0,356.0 1414.0,355.0 1413.0,355.0 1411.0,353.0 1410.0,353.0 1405.0,348.0 1405.0,347.0 1404.0,346.0 1404.0,345.0 1398.0,339.0 1398.0,338.0 1396.0,336.0 1394.0,336.0 1393.0,335.0 1388.0,335.0 1387.0,336.0Z M1366.0,336.0 1365.0,337.0 1365.0,339.0 1366.0,340.0 1366.0,341.0 1369.0,344.0 1371.0,344.0 1373.0,342.0 1373.0,337.0 1372.0,336.0 1370.0,336.0 1369.0,335.0 1368.0,336.0Z M1346.0,335.0 1345.0,336.0 1343.0,336.0 1341.0,338.0 1341.0,340.0 1342.0,341.0 1342.0,343.0 1343.0,344.0 1343.0,369.0 1342.0,370.0 1342.0,372.0 1341.0,373.0 1341.0,375.0 1343.0,377.0 1344.0,377.0 1345.0,378.0 1354.0,378.0 1356.0,376.0 1356.0,368.0 1355.0,367.0 1355.0,365.0 1356.0,364.0 1356.0,363.0 1358.0,361.0 1361.0,361.0 1362.0,362.0 1363.0,362.0 1364.0,363.0 1365.0,363.0 1366.0,362.0 1366.0,361.0 1367.0,360.0 1367.0,351.0 1366.0,350.0 1363.0,350.0 1362.0,351.0 1361.0,351.0 1360.0,352.0 1358.0,352.0 1356.0,350.0 1356.0,340.0 1357.0,339.0 1356.0,338.0 1356.0,337.0 1355.0,336.0 1354.0,336.0 1353.0,335.0Z M1319.0,335.0 1318.0,336.0 1317.0,336.0 1315.0,338.0 1315.0,339.0 1316.0,340.0 1316.0,341.0 1317.0,342.0 1317.0,343.0 1318.0,344.0 1318.0,369.0 1317.0,370.0 1317.0,371.0 1315.0,373.0 1315.0,376.0 1316.0,377.0 1317.0,377.0 1318.0,378.0 1329.0,378.0 1331.0,376.0 1331.0,370.0 1330.0,369.0 1330.0,344.0 1331.0,343.0 1331.0,337.0 1330.0,336.0 1329.0,336.0 1328.0,335.0Z M1296.0,336.0 1295.0,337.0 1295.0,339.0 1302.0,346.0 1303.0,346.0 1304.0,347.0 1305.0,347.0 1307.0,345.0 1307.0,344.0 1308.0,343.0 1308.0,339.0 1307.0,338.0 1307.0,337.0 1306.0,336.0 1304.0,336.0 1303.0,335.0 1299.0,335.0 1298.0,336.0Z M1204.0,338.0 1205.0,339.0 1205.0,341.0 1207.0,343.0 1212.0,343.0 1213.0,342.0 1213.0,338.0 1211.0,336.0 1209.0,336.0 1208.0,335.0 1207.0,336.0 1206.0,336.0Z M1185.0,335.0 1184.0,336.0 1183.0,336.0 1181.0,338.0 1181.0,375.0 1182.0,376.0 1182.0,377.0 1183.0,377.0 1184.0,378.0 1191.0,378.0 1192.0,377.0 1193.0,377.0 1194.0,376.0 1194.0,363.0 1196.0,361.0 1199.0,361.0 1200.0,362.0 1201.0,362.0 1202.0,363.0 1203.0,362.0 1204.0,362.0 1204.0,361.0 1205.0,360.0 1205.0,351.0 1203.0,349.0 1202.0,349.0 1200.0,351.0 1199.0,351.0 1198.0,352.0 1196.0,352.0 1195.0,351.0 1195.0,350.0 1194.0,349.0 1194.0,341.0 1195.0,340.0 1195.0,339.0 1194.0,338.0 1194.0,337.0 1193.0,336.0 1192.0,336.0 1191.0,335.0Z M1156.0,335.0 1155.0,336.0 1154.0,336.0 1153.0,337.0 1153.0,338.0 1154.0,339.0 1154.0,340.0 1156.0,342.0 1156.0,343.0 1157.0,344.0 1157.0,345.0 1159.0,347.0 1159.0,348.0 1161.0,350.0 1161.0,351.0 1162.0,352.0 1162.0,362.0 1160.0,364.0 1160.0,365.0 1158.0,367.0 1158.0,368.0 1157.0,369.0 1157.0,371.0 1156.0,372.0 1156.0,373.0 1155.0,374.0 1155.0,377.0 1156.0,378.0 1160.0,378.0 1161.0,377.0 1163.0,377.0 1164.0,376.0 1165.0,376.0 1168.0,373.0 1168.0,372.0 1169.0,371.0 1169.0,370.0 1170.0,369.0 1170.0,368.0 1173.0,365.0 1173.0,364.0 1175.0,362.0 1175.0,352.0 1174.0,351.0 1174.0,350.0 1171.0,347.0 1171.0,346.0 1170.0,345.0 1170.0,344.0 1168.0,342.0 1168.0,341.0 1164.0,337.0 1163.0,337.0 1162.0,336.0 1160.0,336.0 1159.0,335.0Z M1140.0,335.0 1139.0,336.0 1137.0,336.0 1136.0,337.0 1135.0,337.0 1134.0,338.0 1134.0,339.0 1132.0,341.0 1132.0,342.0 1129.0,345.0 1129.0,346.0 1128.0,347.0 1128.0,350.0 1127.0,351.0 1127.0,363.0 1128.0,364.0 1128.0,368.0 1132.0,372.0 1132.0,373.0 1136.0,377.0 1137.0,377.0 1138.0,378.0 1145.0,378.0 1146.0,377.0 1146.0,374.0 1141.0,369.0 1141.0,368.0 1140.0,367.0 1140.0,347.0 1141.0,346.0 1141.0,345.0 1146.0,340.0 1146.0,339.0 1147.0,338.0 1146.0,337.0 1146.0,336.0 1144.0,336.0 1143.0,335.0Z M1108.0,336.0 1107.0,336.0 1106.0,335.0 1101.0,335.0 1098.0,338.0 1098.0,343.0 1099.0,344.0 1099.0,346.0 1100.0,347.0 1101.0,347.0 1107.0,341.0 1108.0,341.0 1108.0,340.0 1109.0,339.0 1109.0,338.0 1108.0,337.0Z M1069.0,337.0 1069.0,340.0 1073.0,344.0 1073.0,345.0 1074.0,346.0 1074.0,347.0 1075.0,348.0 1075.0,349.0 1077.0,351.0 1077.0,352.0 1078.0,353.0 1078.0,354.0 1079.0,355.0 1079.0,357.0 1080.0,358.0 1080.0,359.0 1081.0,360.0 1081.0,361.0 1082.0,362.0 1082.0,363.0 1083.0,364.0 1083.0,368.0 1082.0,369.0 1082.0,370.0 1081.0,371.0 1081.0,372.0 1080.0,373.0 1080.0,375.0 1081.0,376.0 1081.0,377.0 1082.0,377.0 1083.0,378.0 1094.0,378.0 1095.0,377.0 1096.0,377.0 1096.0,376.0 1097.0,375.0 1097.0,373.0 1096.0,372.0 1096.0,371.0 1095.0,370.0 1095.0,369.0 1094.0,368.0 1094.0,365.0 1095.0,364.0 1095.0,361.0 1096.0,360.0 1096.0,354.0 1095.0,353.0 1094.0,353.0 1093.0,352.0 1092.0,352.0 1087.0,347.0 1087.0,346.0 1086.0,345.0 1086.0,341.0 1085.0,340.0 1085.0,338.0 1083.0,336.0 1082.0,336.0 1081.0,335.0 1074.0,335.0 1073.0,336.0 1071.0,336.0 1070.0,337.0Z M1029.0,335.0 1028.0,336.0 1027.0,336.0 1025.0,338.0 1025.0,340.0 1027.0,342.0 1030.0,342.0 1031.0,341.0 1032.0,341.0 1033.0,340.0 1034.0,340.0 1036.0,342.0 1036.0,343.0 1037.0,344.0 1037.0,375.0 1038.0,376.0 1038.0,377.0 1039.0,377.0 1040.0,378.0 1047.0,378.0 1048.0,377.0 1049.0,377.0 1049.0,376.0 1050.0,375.0 1050.0,344.0 1051.0,343.0 1051.0,342.0 1053.0,340.0 1054.0,340.0 1056.0,342.0 1057.0,342.0 1058.0,343.0 1059.0,343.0 1060.0,342.0 1061.0,342.0 1062.0,341.0 1062.0,338.0 1060.0,336.0 1059.0,336.0 1058.0,335.0 1057.0,336.0 1055.0,336.0 1054.0,337.0 1051.0,337.0 1050.0,336.0 1048.0,336.0 1047.0,335.0 1039.0,335.0 1038.0,336.0 1036.0,336.0 1035.0,337.0 1034.0,337.0 1033.0,336.0 1031.0,336.0 1030.0,335.0Z M1005.0,335.0 1004.0,336.0 1003.0,336.0 1002.0,337.0 1002.0,376.0 1004.0,378.0 1015.0,378.0 1016.0,377.0 1017.0,377.0 1017.0,376.0 1018.0,375.0 1018.0,374.0 1017.0,373.0 1017.0,372.0 1015.0,370.0 1015.0,367.0 1014.0,366.0 1015.0,365.0 1015.0,351.0 1014.0,350.0 1014.0,343.0 1015.0,342.0 1015.0,341.0 1016.0,340.0 1016.0,338.0 1014.0,336.0 1012.0,336.0 1011.0,335.0Z M918.0,336.0 916.0,338.0 916.0,341.0 917.0,342.0 917.0,376.0 918.0,377.0 919.0,377.0 920.0,378.0 927.0,378.0 929.0,376.0 929.0,374.0 930.0,373.0 930.0,368.0 931.0,367.0 933.0,367.0 944.0,378.0 951.0,378.0 953.0,376.0 953.0,373.0 947.0,367.0 947.0,366.0 945.0,364.0 945.0,363.0 944.0,362.0 944.0,358.0 945.0,357.0 945.0,356.0 948.0,353.0 948.0,352.0 949.0,351.0 949.0,350.0 950.0,349.0 950.0,348.0 951.0,347.0 951.0,344.0 950.0,343.0 950.0,342.0 948.0,340.0 948.0,339.0 947.0,338.0 947.0,337.0 946.0,337.0 945.0,336.0 944.0,336.0 943.0,335.0 938.0,335.0 937.0,336.0 936.0,336.0 933.0,339.0 932.0,339.0 931.0,338.0 931.0,337.0 930.0,337.0 929.0,336.0 928.0,336.0 927.0,335.0 920.0,335.0 919.0,336.0Z M932.0,339.0 933.0,339.0 935.0,341.0 935.0,342.0 936.0,343.0 936.0,344.0 937.0,345.0 937.0,348.0 936.0,349.0 936.0,350.0 934.0,352.0 932.0,352.0 930.0,350.0 930.0,343.0 931.0,342.0 931.0,340.0Z M897.0,336.0 896.0,337.0 896.0,339.0 901.0,344.0 903.0,344.0 905.0,342.0 905.0,337.0 904.0,336.0 902.0,336.0 901.0,335.0 900.0,335.0 899.0,336.0Z M877.0,335.0 876.0,336.0 874.0,336.0 873.0,337.0 872.0,337.0 872.0,340.0 873.0,341.0 873.0,342.0 874.0,343.0 874.0,365.0 875.0,366.0 874.0,367.0 874.0,370.0 872.0,372.0 872.0,373.0 871.0,374.0 871.0,375.0 872.0,376.0 872.0,377.0 873.0,377.0 874.0,378.0 886.0,378.0 888.0,376.0 888.0,372.0 887.0,371.0 887.0,369.0 886.0,368.0 886.0,363.0 888.0,361.0 889.0,361.0 890.0,360.0 891.0,360.0 892.0,361.0 893.0,361.0 894.0,362.0 897.0,362.0 899.0,360.0 899.0,352.0 897.0,350.0 895.0,350.0 894.0,351.0 893.0,351.0 892.0,352.0 889.0,352.0 886.0,349.0 886.0,345.0 887.0,344.0 887.0,342.0 888.0,341.0 888.0,337.0 887.0,336.0 886.0,336.0 885.0,335.0Z M830.0,335.0 829.0,336.0 828.0,336.0 826.0,338.0 826.0,342.0 827.0,343.0 827.0,345.0 828.0,346.0 828.0,347.0 829.0,348.0 829.0,349.0 832.0,352.0 832.0,354.0 833.0,355.0 833.0,359.0 834.0,360.0 834.0,362.0 835.0,363.0 835.0,364.0 838.0,367.0 838.0,368.0 839.0,369.0 839.0,373.0 840.0,374.0 840.0,376.0 841.0,377.0 847.0,377.0 848.0,376.0 849.0,376.0 850.0,375.0 850.0,374.0 851.0,373.0 851.0,370.0 852.0,369.0 852.0,361.0 851.0,360.0 851.0,359.0 850.0,359.0 846.0,355.0 846.0,354.0 845.0,353.0 845.0,352.0 844.0,351.0 844.0,350.0 841.0,347.0 841.0,346.0 840.0,345.0 840.0,339.0 839.0,338.0 839.0,337.0 838.0,336.0 837.0,336.0 836.0,335.0Z M806.0,335.0 805.0,336.0 804.0,336.0 802.0,338.0 802.0,342.0 803.0,343.0 803.0,369.0 802.0,370.0 802.0,372.0 801.0,373.0 801.0,376.0 802.0,377.0 803.0,377.0 804.0,378.0 813.0,378.0 815.0,376.0 815.0,375.0 816.0,374.0 816.0,339.0 815.0,338.0 815.0,337.0 814.0,336.0 813.0,336.0 812.0,335.0Z M756.0,336.0 755.0,337.0 755.0,338.0 754.0,339.0 754.0,340.0 755.0,341.0 755.0,344.0 756.0,345.0 756.0,347.0 762.0,353.0 763.0,353.0 764.0,354.0 765.0,354.0 767.0,356.0 767.0,357.0 770.0,360.0 771.0,360.0 773.0,362.0 773.0,363.0 778.0,368.0 778.0,369.0 779.0,370.0 779.0,371.0 780.0,372.0 780.0,374.0 783.0,377.0 790.0,377.0 791.0,376.0 791.0,374.0 792.0,373.0 792.0,367.0 791.0,366.0 791.0,362.0 790.0,361.0 790.0,360.0 787.0,357.0 787.0,356.0 786.0,355.0 785.0,355.0 784.0,354.0 783.0,354.0 782.0,353.0 781.0,353.0 779.0,351.0 779.0,350.0 773.0,344.0 773.0,343.0 771.0,341.0 770.0,341.0 768.0,339.0 768.0,338.0 766.0,336.0 764.0,336.0 763.0,335.0 759.0,335.0 758.0,336.0Z M711.0,335.0 710.0,336.0 709.0,336.0 708.0,337.0 708.0,338.0 707.0,339.0 707.0,367.0 708.0,368.0 708.0,370.0 715.0,377.0 716.0,377.0 717.0,378.0 718.0,378.0 720.0,380.0 721.0,380.0 722.0,381.0 728.0,381.0 729.0,380.0 730.0,380.0 732.0,378.0 734.0,378.0 735.0,377.0 736.0,377.0 741.0,372.0 741.0,371.0 742.0,370.0 742.0,364.0 741.0,363.0 741.0,349.0 740.0,350.0 740.0,364.0 739.0,365.0 739.0,368.0 738.0,369.0 738.0,370.0 736.0,372.0 735.0,372.0 734.0,373.0 732.0,373.0 731.0,374.0 728.0,374.0 727.0,373.0 726.0,373.0 725.0,372.0 724.0,372.0 720.0,368.0 720.0,342.0 721.0,341.0 721.0,338.0 719.0,336.0 718.0,336.0 717.0,335.0Z M669.0,335.0 668.0,336.0 667.0,336.0 666.0,337.0 666.0,344.0 667.0,345.0 667.0,369.0 666.0,370.0 666.0,376.0 668.0,378.0 680.0,378.0 682.0,376.0 682.0,372.0 681.0,371.0 681.0,370.0 680.0,369.0 680.0,368.0 679.0,367.0 679.0,365.0 680.0,364.0 680.0,344.0 681.0,343.0 681.0,342.0 682.0,341.0 682.0,337.0 681.0,336.0 680.0,336.0 679.0,335.0Z M651.0,335.0 649.0,337.0 649.0,341.0 650.0,342.0 651.0,342.0 652.0,343.0 654.0,343.0 655.0,344.0 656.0,343.0 657.0,343.0 659.0,341.0 659.0,337.0 658.0,336.0 657.0,336.0 656.0,335.0Z M620.0,336.0 619.0,337.0 619.0,341.0 621.0,343.0 621.0,344.0 622.0,345.0 622.0,354.0 621.0,355.0 621.0,363.0 622.0,364.0 622.0,368.0 623.0,369.0 623.0,373.0 624.0,374.0 624.0,376.0 625.0,377.0 626.0,377.0 627.0,378.0 630.0,378.0 631.0,379.0 634.0,379.0 635.0,380.0 638.0,380.0 639.0,381.0 640.0,380.0 642.0,380.0 645.0,377.0 647.0,377.0 648.0,376.0 650.0,376.0 651.0,375.0 652.0,375.0 652.0,373.0 653.0,372.0 653.0,368.0 652.0,368.0 645.0,375.0 644.0,375.0 643.0,376.0 642.0,376.0 641.0,375.0 640.0,375.0 636.0,371.0 636.0,370.0 635.0,369.0 635.0,368.0 634.0,367.0 634.0,365.0 633.0,364.0 633.0,344.0 634.0,343.0 634.0,342.0 635.0,341.0 635.0,338.0 634.0,337.0 634.0,336.0 633.0,336.0 632.0,335.0 623.0,335.0 622.0,336.0Z M571.0,336.0 569.0,339.0 569.0,345.0 570.0,346.0 570.0,369.0 569.0,370.0 569.0,373.0 570.0,374.0 570.0,376.0 572.0,378.0 581.0,378.0 582.0,377.0 583.0,377.0 585.0,375.0 585.0,373.0 583.0,371.0 583.0,369.0 582.0,368.0 582.0,364.0 583.0,363.0 583.0,362.0 586.0,359.0 587.0,359.0 588.0,358.0 592.0,358.0 594.0,360.0 595.0,360.0 597.0,362.0 597.0,363.0 598.0,364.0 598.0,368.0 597.0,369.0 597.0,370.0 595.0,373.0 595.0,376.0 598.0,378.0 609.0,378.0 611.0,376.0 611.0,341.0 612.0,340.0 612.0,339.0 611.0,338.0 611.0,337.0 608.0,335.0 599.0,335.0 598.0,336.0 597.0,336.0 595.0,338.0 595.0,340.0 596.0,341.0 596.0,342.0 598.0,345.0 598.0,346.0 597.0,347.0 597.0,349.0 591.0,355.0 589.0,355.0 588.0,354.0 587.0,354.0 583.0,350.0 583.0,347.0 582.0,346.0 582.0,345.0 583.0,344.0 583.0,342.0 585.0,340.0 585.0,338.0 583.0,336.0 581.0,336.0 580.0,335.0 573.0,335.0 572.0,336.0Z M553.0,336.0 553.0,337.0 552.0,338.0 552.0,340.0 555.0,343.0 560.0,343.0 562.0,341.0 562.0,340.0 563.0,339.0 562.0,338.0 562.0,337.0 561.0,336.0 560.0,336.0 559.0,335.0 555.0,335.0 554.0,336.0Z M523.0,336.0 522.0,337.0 522.0,340.0 524.0,342.0 524.0,343.0 526.0,345.0 526.0,346.0 527.0,347.0 527.0,348.0 528.0,349.0 528.0,350.0 530.0,352.0 531.0,352.0 532.0,353.0 534.0,353.0 535.0,354.0 536.0,354.0 539.0,357.0 539.0,358.0 540.0,359.0 540.0,360.0 541.0,361.0 541.0,362.0 544.0,365.0 544.0,366.0 545.0,367.0 545.0,368.0 551.0,374.0 551.0,375.0 552.0,376.0 553.0,376.0 554.0,377.0 557.0,377.0 559.0,375.0 559.0,367.0 558.0,366.0 558.0,360.0 557.0,359.0 557.0,358.0 554.0,355.0 553.0,355.0 552.0,354.0 551.0,354.0 550.0,353.0 549.0,353.0 545.0,349.0 545.0,348.0 543.0,346.0 543.0,345.0 540.0,342.0 540.0,341.0 539.0,340.0 539.0,339.0 537.0,337.0 536.0,337.0 535.0,336.0 533.0,336.0 532.0,335.0 525.0,335.0 524.0,336.0Z M214.0,280.0 213.0,280.0 212.0,279.0 211.0,280.0 210.0,280.0 209.0,281.0 208.0,281.0 206.0,283.0 206.0,287.0 207.0,287.0 208.0,288.0 213.0,288.0 215.0,286.0 215.0,282.0 214.0,281.0Z M158.0,278.0 157.0,279.0 157.0,280.0 156.0,281.0 156.0,285.0 155.0,286.0 155.0,290.0 156.0,291.0 156.0,292.0 157.0,292.0 158.0,293.0 164.0,293.0 166.0,291.0 166.0,290.0 167.0,289.0 167.0,287.0 166.0,286.0 166.0,283.0 164.0,281.0 164.0,280.0 162.0,278.0Z M238.0,277.0 235.0,277.0 233.0,279.0 233.0,280.0 232.0,281.0 232.0,282.0 231.0,283.0 231.0,287.0 232.0,288.0 233.0,288.0 234.0,289.0 235.0,289.0 236.0,288.0 239.0,288.0 241.0,286.0 241.0,281.0 240.0,280.0 240.0,279.0Z M191.0,277.0 186.0,277.0 182.0,281.0 182.0,282.0 181.0,283.0 181.0,285.0 180.0,286.0 181.0,287.0 181.0,289.0 183.0,291.0 189.0,291.0 191.0,289.0 191.0,286.0 192.0,285.0 192.0,279.0 191.0,278.0Z M136.0,276.0 135.0,277.0 134.0,277.0 133.0,278.0 133.0,279.0 132.0,280.0 132.0,281.0 131.0,282.0 131.0,288.0 132.0,289.0 132.0,290.0 134.0,292.0 135.0,292.0 136.0,293.0 140.0,293.0 143.0,290.0 143.0,278.0 141.0,276.0Z M258.0,275.0 255.0,278.0 255.0,282.0 257.0,284.0 257.0,285.0 258.0,286.0 259.0,286.0 260.0,287.0 261.0,287.0 263.0,285.0 263.0,283.0 264.0,282.0 264.0,278.0 263.0,277.0 263.0,276.0 262.0,275.0Z M1992.0,138.0 1989.0,137.0 1975.0,137.0 1974.0,138.0 1969.0,138.0 1958.0,143.0 1943.0,144.0 1935.0,149.0 1928.0,150.0 1920.0,157.0 1919.0,163.0 1921.0,167.0 1928.0,170.0 1932.0,170.0 1940.0,168.0 1946.0,163.0 1950.0,163.0 1953.0,165.0 1956.0,172.0 1960.0,177.0 1959.0,181.0 1954.0,185.0 1948.0,186.0 1938.0,191.0 1927.0,191.0 1920.0,193.0 1914.0,198.0 1914.0,204.0 1918.0,208.0 1922.0,210.0 1926.0,210.0 1934.0,215.0 1939.0,216.0 1958.0,215.0 1961.0,218.0 1961.0,243.0 1954.0,256.0 1946.0,263.0 1937.0,264.0 1927.0,269.0 1900.0,269.0 1896.0,272.0 1896.0,276.0 1899.0,280.0 1905.0,282.0 1914.0,282.0 1922.0,287.0 1937.0,288.0 1946.0,293.0 1954.0,293.0 1958.0,290.0 1966.0,287.0 1972.0,279.0 1974.0,271.0 1980.0,260.0 1980.0,245.0 1981.0,244.0 1980.0,207.0 1989.0,199.0 2008.0,197.0 2016.0,188.0 2015.0,180.0 2008.0,174.0 1992.0,174.0 1982.0,176.0 1977.0,174.0 1974.0,170.0 1974.0,165.0 1983.0,157.0 1987.0,156.0 1991.0,153.0 1995.0,143.0 1995.0,141.0Z M133.0,139.0 130.0,151.0 121.0,159.0 103.0,188.0 101.0,200.0 105.0,201.0 108.0,195.0 121.0,177.0 141.0,158.0 162.0,170.0 188.0,196.0 189.0,199.0 162.0,225.0 159.0,232.0 154.0,237.0 151.0,237.0 142.0,229.0 139.0,229.0 136.0,234.0 126.0,242.0 133.0,254.0 132.0,262.0 138.0,262.0 160.0,240.0 171.0,234.0 196.0,209.0 201.0,209.0 253.0,262.0 259.0,263.0 263.0,260.0 263.0,253.0 213.0,208.0 207.0,199.0 210.0,194.0 237.0,168.0 266.0,168.0 273.0,165.0 280.0,158.0 282.0,153.0 282.0,142.0 275.0,129.0 268.0,122.0 257.0,117.0 244.0,118.0 238.0,121.0 232.0,131.0 232.0,159.0 198.0,191.0 195.0,191.0 167.0,164.0 155.0,147.0 156.0,141.0 176.0,121.0 183.0,118.0 198.0,105.0 196.0,102.0 180.0,109.0 163.0,120.0 152.0,130.0Z M248.0,127.0 249.0,127.0 250.0,126.0 253.0,126.0 254.0,127.0 255.0,127.0 258.0,130.0 258.0,131.0 264.0,137.0 265.0,137.0 267.0,139.0 268.0,139.0 270.0,141.0 270.0,142.0 272.0,144.0 272.0,145.0 273.0,146.0 273.0,147.0 272.0,148.0 272.0,149.0 266.0,155.0 260.0,155.0 259.0,154.0 258.0,154.0 252.0,148.0 252.0,147.0 248.0,143.0 247.0,143.0 244.0,140.0 244.0,139.0 242.0,137.0 242.0,133.0Z M1462.0,102.0 1444.0,93.0 1434.0,92.0 1428.0,95.0 1414.0,96.0 1405.0,101.0 1391.0,102.0 1381.0,107.0 1364.0,108.0 1351.0,114.0 1347.0,121.0 1350.0,130.0 1358.0,133.0 1363.0,137.0 1371.0,139.0 1379.0,146.0 1385.0,154.0 1385.0,163.0 1380.0,170.0 1379.0,182.0 1372.0,192.0 1365.0,197.0 1348.0,198.0 1338.0,203.0 1327.0,204.0 1324.0,207.0 1313.0,211.0 1302.0,221.0 1301.0,224.0 1302.0,237.0 1308.0,240.0 1331.0,240.0 1336.0,239.0 1345.0,234.0 1359.0,233.0 1368.0,228.0 1385.0,227.0 1397.0,222.0 1416.0,222.0 1428.0,220.0 1451.0,222.0 1463.0,228.0 1490.0,228.0 1499.0,220.0 1500.0,209.0 1498.0,204.0 1480.0,186.0 1477.0,185.0 1436.0,185.0 1429.0,186.0 1426.0,188.0 1420.0,188.0 1416.0,183.0 1416.0,153.0 1424.0,144.0 1431.0,139.0 1439.0,137.0 1444.0,133.0 1450.0,131.0 1462.0,119.0 1464.0,114.0 1464.0,106.0Z M1100.0,83.0 1092.0,82.0 1091.0,83.0 1082.0,83.0 1081.0,84.0 1078.0,84.0 1069.0,89.0 1059.0,90.0 1050.0,98.0 1050.0,101.0 1054.0,107.0 1056.0,112.0 1066.0,121.0 1072.0,130.0 1072.0,143.0 1073.0,145.0 1072.0,146.0 1072.0,148.0 1066.0,154.0 1061.0,155.0 1060.0,156.0 1057.0,156.0 1049.0,163.0 1049.0,170.0 1050.0,172.0 1054.0,175.0 1056.0,179.0 1057.0,184.0 1056.0,185.0 1055.0,195.0 1051.0,200.0 1049.0,207.0 1044.0,215.0 1043.0,220.0 1037.0,230.0 1037.0,233.0 1032.0,240.0 1032.0,242.0 1031.0,243.0 1032.0,250.0 1039.0,257.0 1041.0,257.0 1042.0,258.0 1050.0,258.0 1055.0,256.0 1059.0,252.0 1066.0,250.0 1070.0,246.0 1073.0,245.0 1079.0,240.0 1083.0,239.0 1088.0,234.0 1089.0,234.0 1092.0,230.0 1104.0,219.0 1109.0,212.0 1109.0,209.0 1110.0,208.0 1110.0,205.0 1112.0,202.0 1112.0,199.0 1107.0,194.0 1103.0,194.0 1102.0,195.0 1095.0,196.0 1092.0,193.0 1092.0,183.0 1096.0,178.0 1097.0,173.0 1098.0,172.0 1098.0,160.0 1097.0,159.0 1097.0,157.0 1094.0,155.0 1086.0,146.0 1086.0,131.0 1091.0,123.0 1092.0,117.0 1097.0,112.0 1098.0,108.0 1103.0,101.0 1104.0,97.0 1106.0,94.0 1106.0,91.0 1103.0,85.0Z M1222.0,72.0 1206.0,65.0 1185.0,66.0 1179.0,70.0 1168.0,72.0 1155.0,80.0 1145.0,88.0 1142.0,88.0 1139.0,85.0 1135.0,84.0 1128.0,90.0 1127.0,93.0 1127.0,151.0 1128.0,154.0 1135.0,161.0 1148.0,162.0 1153.0,167.0 1154.0,171.0 1147.0,174.0 1140.0,181.0 1139.0,184.0 1140.0,189.0 1145.0,195.0 1144.0,206.0 1136.0,213.0 1129.0,216.0 1116.0,229.0 1115.0,232.0 1116.0,240.0 1123.0,250.0 1129.0,252.0 1152.0,252.0 1165.0,246.0 1181.0,245.0 1194.0,240.0 1208.0,240.0 1214.0,244.0 1220.0,246.0 1227.0,246.0 1234.0,242.0 1236.0,236.0 1236.0,225.0 1232.0,217.0 1226.0,212.0 1220.0,209.0 1185.0,209.0 1182.0,207.0 1182.0,201.0 1185.0,198.0 1191.0,197.0 1197.0,192.0 1200.0,188.0 1201.0,183.0 1200.0,172.0 1198.0,168.0 1194.0,166.0 1189.0,160.0 1189.0,158.0 1193.0,154.0 1197.0,147.0 1195.0,140.0 1189.0,134.0 1189.0,129.0 1209.0,108.0 1227.0,96.0 1234.0,87.0 1234.0,85.0 1229.0,78.0Z M1156.0,127.0 1157.0,128.0 1157.0,130.0 1158.0,131.0 1157.0,132.0 1157.0,134.0 1154.0,137.0 1149.0,137.0 1147.0,135.0 1147.0,134.0 1146.0,133.0 1147.0,132.0 1147.0,130.0 1150.0,127.0 1152.0,127.0 1153.0,126.0 1154.0,126.0 1155.0,127.0Z M1155.0,96.0 1160.0,96.0 1163.0,99.0 1163.0,105.0 1162.0,106.0 1162.0,107.0 1161.0,108.0 1160.0,108.0 1158.0,110.0 1154.0,110.0 1152.0,108.0 1152.0,105.0 1151.0,104.0 1151.0,103.0 1152.0,102.0 1152.0,99.0Z M1193.0,87.0 1196.0,90.0 1196.0,91.0 1197.0,92.0 1197.0,93.0 1195.0,95.0 1195.0,96.0 1190.0,101.0 1184.0,101.0 1182.0,99.0 1182.0,93.0 1186.0,89.0 1187.0,89.0 1189.0,87.0Z M1666.0,43.0 1662.0,47.0 1658.0,57.0 1660.0,86.0 1655.0,128.0 1652.0,131.0 1630.0,132.0 1620.0,137.0 1593.0,138.0 1589.0,144.0 1589.0,152.0 1595.0,160.0 1613.0,167.0 1625.0,168.0 1639.0,175.0 1641.0,180.0 1637.0,189.0 1626.0,205.0 1609.0,220.0 1597.0,227.0 1584.0,228.0 1567.0,234.0 1560.0,241.0 1559.0,247.0 1561.0,251.0 1574.0,257.0 1585.0,257.0 1597.0,252.0 1611.0,252.0 1621.0,247.0 1631.0,245.0 1658.0,228.0 1667.0,219.0 1674.0,206.0 1678.0,203.0 1681.0,195.0 1688.0,192.0 1700.0,198.0 1730.0,222.0 1746.0,243.0 1765.0,263.0 1773.0,265.0 1786.0,263.0 1792.0,257.0 1798.0,243.0 1793.0,227.0 1787.0,217.0 1773.0,203.0 1751.0,187.0 1725.0,174.0 1706.0,171.0 1698.0,164.0 1701.0,157.0 1709.0,155.0 1716.0,150.0 1737.0,143.0 1744.0,138.0 1756.0,137.0 1763.0,133.0 1774.0,131.0 1787.0,118.0 1788.0,111.0 1781.0,97.0 1773.0,90.0 1760.0,89.0 1740.0,96.0 1719.0,107.0 1713.0,107.0 1710.0,104.0 1710.0,81.0 1715.0,71.0 1715.0,55.0 1703.0,43.0 1698.0,41.0 1671.0,41.0Z M805.0,60.0 798.0,89.0 808.0,116.0 780.0,139.0 777.0,155.0 780.0,165.0 790.0,171.0 768.0,193.0 749.0,219.0 749.0,229.0 758.0,239.0 766.0,235.0 772.0,223.0 776.0,221.0 779.0,224.0 779.0,236.0 774.0,241.0 772.0,252.0 774.0,268.0 783.0,275.0 791.0,269.0 794.0,258.0 792.0,232.0 798.0,214.0 807.0,204.0 820.0,200.0 828.0,206.0 832.0,214.0 825.0,221.0 812.0,221.0 804.0,225.0 803.0,247.0 811.0,257.0 818.0,257.0 827.0,252.0 835.0,262.0 842.0,262.0 848.0,245.0 853.0,240.0 877.0,246.0 891.0,234.0 902.0,234.0 916.0,247.0 924.0,262.0 939.0,276.0 962.0,276.0 973.0,270.0 987.0,269.0 989.0,265.0 985.0,259.0 927.0,233.0 913.0,214.0 924.0,193.0 924.0,178.0 907.0,163.0 906.0,157.0 911.0,151.0 929.0,143.0 933.0,138.0 931.0,132.0 917.0,124.0 910.0,114.0 897.0,114.0 893.0,121.0 893.0,134.0 884.0,152.0 885.0,167.0 877.0,174.0 862.0,178.0 853.0,171.0 852.0,167.0 869.0,148.0 869.0,139.0 862.0,132.0 875.0,117.0 875.0,103.0 866.0,102.0 848.0,119.0 840.0,121.0 830.0,119.0 822.0,109.0 823.0,98.0 831.0,89.0 860.0,92.0 868.0,89.0 887.0,74.0 905.0,76.0 916.0,71.0 924.0,55.0 922.0,47.0 914.0,41.0 907.0,40.0 901.0,42.0 890.0,53.0 881.0,54.0 876.0,50.0 875.0,31.0 861.0,29.0 852.0,45.0 850.0,57.0 842.0,64.0 836.0,64.0 823.0,54.0 813.0,54.0Z M865.0,193.0 868.0,193.0 874.0,199.0 874.0,200.0 875.0,201.0 875.0,210.0 874.0,211.0 874.0,212.0 870.0,216.0 869.0,216.0 867.0,218.0 865.0,218.0 864.0,217.0 863.0,217.0 862.0,216.0 861.0,216.0 859.0,214.0 859.0,213.0 858.0,212.0 858.0,200.0 859.0,199.0 859.0,198.0 863.0,194.0 864.0,194.0Z M806.0,177.0 807.0,176.0 807.0,175.0 808.0,174.0 808.0,173.0 813.0,168.0 814.0,168.0 815.0,167.0 826.0,167.0 827.0,168.0 830.0,168.0 833.0,171.0 833.0,182.0 830.0,185.0 828.0,185.0 827.0,186.0 816.0,186.0 815.0,185.0 812.0,185.0 809.0,182.0 809.0,181.0 807.0,179.0 807.0,178.0Z M812.0,141.0 813.0,140.0 813.0,139.0 814.0,138.0 814.0,137.0 819.0,132.0 830.0,132.0 834.0,136.0 834.0,138.0 835.0,139.0 835.0,143.0 834.0,144.0 834.0,145.0 833.0,146.0 833.0,147.0 832.0,148.0 831.0,148.0 830.0,149.0 819.0,149.0 818.0,148.0 817.0,148.0 816.0,147.0 816.0,146.0 813.0,143.0 813.0,142.0Z M620.0,25.0 603.0,30.0 596.0,37.0 593.0,44.0 593.0,61.0 586.0,70.0 579.0,73.0 563.0,73.0 551.0,66.0 543.0,65.0 535.0,71.0 533.0,86.0 528.0,91.0 521.0,107.0 522.0,117.0 535.0,131.0 540.0,132.0 544.0,131.0 563.0,111.0 567.0,111.0 575.0,117.0 574.0,128.0 556.0,148.0 539.0,150.0 530.0,155.0 517.0,156.0 509.0,161.0 500.0,161.0 492.0,156.0 484.0,155.0 468.0,171.0 468.0,178.0 473.0,184.0 486.0,192.0 513.0,191.0 534.0,180.0 549.0,180.0 555.0,185.0 558.0,202.0 569.0,213.0 568.0,218.0 549.0,227.0 533.0,228.0 521.0,235.0 510.0,247.0 510.0,253.0 514.0,257.0 557.0,257.0 586.0,244.0 602.0,230.0 610.0,228.0 617.0,233.0 624.0,244.0 643.0,263.0 652.0,269.0 665.0,269.0 677.0,258.0 678.0,237.0 671.0,224.0 657.0,211.0 640.0,203.0 636.0,199.0 635.0,191.0 650.0,179.0 663.0,157.0 694.0,155.0 697.0,149.0 696.0,141.0 687.0,126.0 664.0,124.0 652.0,119.0 639.0,120.0 619.0,131.0 607.0,129.0 606.0,114.0 616.0,104.0 631.0,96.0 650.0,95.0 675.0,89.0 679.0,77.0 677.0,64.0 671.0,59.0 633.0,59.0 630.0,55.0 629.0,31.0Z M610.0,163.0 611.0,164.0 611.0,165.0 613.0,167.0 613.0,168.0 614.0,169.0 614.0,172.0 613.0,173.0 613.0,174.0 612.0,175.0 612.0,176.0 611.0,177.0 611.0,178.0 609.0,180.0 609.0,181.0 606.0,184.0 605.0,184.0 604.0,185.0 602.0,185.0 601.0,186.0 593.0,186.0 592.0,185.0 591.0,185.0 588.0,182.0 588.0,171.0 597.0,162.0 598.0,162.0 599.0,161.0 606.0,161.0 607.0,162.0 608.0,162.0 609.0,163.0Z M105.0,26.0 101.0,31.0 94.0,32.0 68.0,50.0 44.0,75.0 41.0,82.0 32.0,91.0 30.0,99.0 25.0,103.0 20.0,120.0 14.0,127.0 15.0,136.0 9.0,141.0 9.0,158.0 0.0,163.0 0.0,174.0 5.0,174.0 7.0,177.0 4.0,183.0 0.0,185.0 0.0,214.0 6.0,220.0 5.0,225.0 0.0,225.0 0.0,237.0 4.0,237.0 10.0,244.0 9.0,258.0 15.0,265.0 14.0,273.0 20.0,278.0 20.0,285.0 23.0,287.0 24.0,282.0 27.0,283.0 25.0,297.0 30.0,301.0 31.0,307.0 49.0,330.0 87.0,364.0 94.0,365.0 99.0,370.0 103.0,368.0 95.0,363.0 97.0,361.0 103.0,362.0 113.0,370.0 108.0,373.0 110.0,375.0 127.0,374.0 133.0,379.0 156.0,386.0 197.0,388.0 238.0,385.0 276.0,372.0 290.0,362.0 299.0,359.0 335.0,329.0 359.0,297.0 367.0,278.0 372.0,272.0 385.0,227.0 385.0,173.0 372.0,127.0 367.0,122.0 365.0,114.0 347.0,85.0 317.0,54.0 279.0,29.0 270.0,27.0 265.0,23.0 255.0,22.0 242.0,16.0 207.0,10.0 185.0,10.0 153.0,15.0 140.0,21.0 126.0,22.0 120.0,27.0 113.0,28.0 108.0,34.0 103.0,31.0 110.0,27.0Z M78.0,350.0 80.0,348.0 82.0,348.0 83.0,349.0 84.0,349.0 89.0,354.0 90.0,354.0 91.0,355.0 92.0,355.0 94.0,357.0 94.0,358.0 92.0,360.0 91.0,360.0 90.0,359.0 88.0,359.0 85.0,356.0 85.0,355.0 84.0,354.0 82.0,354.0 81.0,353.0 80.0,353.0 78.0,351.0Z M208.0,346.0 211.0,346.0 214.0,349.0 214.0,351.0 215.0,352.0 215.0,361.0 212.0,364.0 210.0,364.0 209.0,363.0 207.0,363.0 206.0,362.0 205.0,362.0 203.0,360.0 202.0,360.0 199.0,357.0 199.0,356.0 203.0,352.0 203.0,351.0 205.0,349.0 205.0,348.0 206.0,347.0 207.0,347.0Z M162.0,346.0 165.0,346.0 166.0,347.0 166.0,348.0 167.0,349.0 167.0,360.0 165.0,362.0 164.0,362.0 162.0,360.0 162.0,358.0 161.0,357.0 161.0,356.0 160.0,355.0 160.0,354.0 158.0,352.0 158.0,350.0Z M227.0,345.0 230.0,345.0 234.0,349.0 234.0,351.0 237.0,354.0 237.0,355.0 238.0,356.0 238.0,358.0 233.0,363.0 232.0,363.0 231.0,364.0 230.0,364.0 229.0,363.0 228.0,363.0 226.0,361.0 226.0,360.0 225.0,359.0 225.0,357.0 224.0,356.0 224.0,355.0 223.0,354.0 223.0,352.0 222.0,351.0 222.0,350.0 223.0,349.0 223.0,348.0 225.0,346.0 226.0,346.0Z M182.0,345.0 186.0,345.0 187.0,346.0 188.0,346.0 191.0,349.0 191.0,350.0 192.0,351.0 192.0,352.0 193.0,353.0 193.0,358.0 191.0,360.0 191.0,361.0 188.0,364.0 184.0,364.0 181.0,361.0 181.0,358.0 180.0,357.0 180.0,356.0 178.0,354.0 178.0,353.0 177.0,352.0 177.0,350.0Z M296.0,313.0 297.0,313.0 300.0,316.0 301.0,316.0 302.0,317.0 303.0,317.0 304.0,318.0 307.0,318.0 309.0,320.0 309.0,323.0 305.0,327.0 305.0,328.0 304.0,329.0 303.0,329.0 302.0,330.0 301.0,330.0 297.0,326.0 297.0,325.0 296.0,324.0 296.0,322.0 295.0,321.0 295.0,319.0 294.0,318.0 294.0,315.0Z M96.0,311.0 97.0,312.0 98.0,312.0 106.0,320.0 106.0,321.0 104.0,323.0 103.0,323.0 102.0,324.0 101.0,324.0 99.0,326.0 98.0,326.0 96.0,328.0 94.0,328.0 93.0,329.0 92.0,328.0 91.0,328.0 89.0,326.0 89.0,323.0 90.0,322.0 90.0,315.0 91.0,314.0 91.0,313.0 93.0,311.0Z M307.0,299.0 310.0,296.0 311.0,296.0 312.0,295.0 314.0,295.0 315.0,294.0 320.0,294.0 324.0,298.0 324.0,299.0 328.0,303.0 328.0,308.0 326.0,310.0 322.0,310.0 321.0,309.0 321.0,308.0 320.0,307.0 320.0,306.0 319.0,305.0 319.0,304.0 318.0,303.0 318.0,302.0 317.0,301.0 316.0,301.0 315.0,300.0 314.0,300.0 312.0,302.0 312.0,304.0 310.0,306.0 308.0,306.0 306.0,304.0 306.0,301.0 307.0,300.0Z M75.0,294.0 80.0,294.0 82.0,296.0 82.0,302.0 83.0,302.0 84.0,303.0 85.0,303.0 88.0,306.0 88.0,307.0 87.0,308.0 87.0,309.0 80.0,316.0 76.0,316.0 74.0,314.0 74.0,312.0 75.0,311.0 75.0,308.0 74.0,307.0 72.0,307.0 71.0,306.0 70.0,306.0 68.0,304.0 68.0,301.0 72.0,297.0 72.0,296.0 73.0,295.0 74.0,295.0Z M62.0,276.0 63.0,276.0 64.0,277.0 65.0,277.0 66.0,278.0 66.0,279.0 67.0,280.0 67.0,283.0 69.0,285.0 70.0,285.0 71.0,286.0 71.0,291.0 69.0,293.0 68.0,293.0 67.0,294.0 66.0,294.0 65.0,295.0 64.0,295.0 63.0,296.0 62.0,296.0 59.0,293.0 59.0,289.0 58.0,288.0 57.0,288.0 54.0,285.0 54.0,283.0 55.0,282.0 56.0,282.0Z M320.0,280.0 323.0,277.0 324.0,277.0 326.0,275.0 327.0,275.0 328.0,274.0 333.0,274.0 334.0,275.0 336.0,275.0 337.0,276.0 338.0,276.0 339.0,277.0 340.0,277.0 341.0,278.0 341.0,279.0 343.0,281.0 343.0,282.0 344.0,283.0 344.0,286.0 337.0,293.0 328.0,293.0 327.0,292.0 326.0,292.0 324.0,290.0 324.0,289.0 320.0,285.0Z M52.0,261.0 54.0,259.0 55.0,259.0 56.0,258.0 57.0,258.0 58.0,259.0 61.0,259.0 63.0,261.0 63.0,262.0 64.0,263.0 64.0,265.0 63.0,266.0 63.0,267.0 62.0,268.0 61.0,268.0 60.0,269.0 58.0,269.0 57.0,270.0 56.0,270.0 55.0,269.0 55.0,268.0 54.0,267.0 54.0,264.0 53.0,263.0 53.0,262.0Z M332.0,259.0 337.0,254.0 340.0,254.0 343.0,257.0 344.0,257.0 345.0,258.0 347.0,258.0 348.0,259.0 349.0,259.0 351.0,261.0 349.0,263.0 345.0,263.0 344.0,262.0 333.0,262.0 332.0,261.0Z M38.0,249.0 40.0,247.0 42.0,247.0 43.0,246.0 50.0,246.0 51.0,247.0 51.0,249.0 50.0,250.0 48.0,250.0 47.0,251.0 40.0,251.0Z M338.0,241.0 339.0,240.0 339.0,239.0 344.0,234.0 345.0,234.0 346.0,233.0 352.0,233.0 353.0,234.0 356.0,234.0 357.0,235.0 358.0,235.0 360.0,237.0 360.0,238.0 362.0,240.0 362.0,241.0 363.0,242.0 363.0,243.0 360.0,246.0 360.0,247.0 357.0,250.0 356.0,250.0 355.0,251.0 346.0,251.0 345.0,250.0 344.0,250.0 343.0,249.0 343.0,248.0 339.0,244.0 339.0,243.0 338.0,242.0Z M51.0,221.0 51.0,225.0 49.0,227.0 48.0,227.0 44.0,231.0 43.0,231.0 42.0,232.0 34.0,232.0 33.0,231.0 33.0,229.0 34.0,228.0 37.0,228.0 38.0,227.0 39.0,227.0 41.0,225.0 41.0,219.0 43.0,217.0 46.0,217.0 47.0,218.0 48.0,218.0Z M353.0,210.0 361.0,210.0 364.0,213.0 363.0,214.0 363.0,215.0 361.0,217.0 361.0,218.0 360.0,219.0 360.0,222.0 359.0,223.0 357.0,223.0 356.0,224.0 351.0,224.0 349.0,222.0 349.0,221.0 348.0,220.0 348.0,217.0 349.0,216.0 349.0,214.0Z M44.0,192.0 45.0,193.0 45.0,194.0 46.0,195.0 45.0,196.0 45.0,197.0 44.0,198.0 44.0,199.0 43.0,200.0 43.0,201.0 42.0,202.0 42.0,204.0 39.0,207.0 37.0,207.0 36.0,208.0 32.0,208.0 30.0,206.0 30.0,202.0 31.0,201.0 31.0,196.0 35.0,192.0Z M352.0,185.0 358.0,185.0 359.0,186.0 360.0,186.0 362.0,188.0 362.0,192.0 361.0,193.0 361.0,196.0 358.0,199.0 354.0,199.0 351.0,196.0 351.0,195.0 350.0,194.0 350.0,192.0 349.0,191.0 349.0,188.0Z M342.0,171.0 342.0,170.0 343.0,169.0 343.0,168.0 344.0,167.0 344.0,166.0 347.0,163.0 348.0,163.0 349.0,162.0 350.0,162.0 351.0,161.0 354.0,161.0 355.0,162.0 358.0,162.0 359.0,163.0 360.0,163.0 364.0,167.0 364.0,170.0 363.0,171.0 361.0,171.0 360.0,170.0 360.0,169.0 358.0,167.0 350.0,167.0 349.0,168.0 348.0,168.0 347.0,169.0 347.0,171.0 344.0,174.0 343.0,173.0 343.0,172.0Z M39.0,153.0 41.0,155.0 42.0,155.0 43.0,156.0 44.0,156.0 45.0,157.0 46.0,157.0 48.0,159.0 48.0,160.0 51.0,163.0 51.0,165.0 49.0,167.0 41.0,167.0 40.0,166.0 38.0,166.0 36.0,164.0 36.0,162.0 37.0,161.0 37.0,155.0Z M358.0,144.0 358.0,147.0 357.0,148.0 356.0,148.0 355.0,149.0 349.0,149.0 348.0,150.0 347.0,150.0 346.0,151.0 345.0,151.0 342.0,154.0 341.0,154.0 340.0,155.0 339.0,155.0 336.0,152.0 336.0,149.0 337.0,148.0 337.0,147.0 339.0,145.0 340.0,145.0 341.0,144.0 345.0,144.0 346.0,143.0 348.0,143.0 349.0,142.0 351.0,142.0 352.0,141.0 354.0,141.0 355.0,142.0 356.0,142.0Z M37.0,139.0 40.0,136.0 41.0,136.0 42.0,137.0 44.0,137.0 50.0,143.0 55.0,143.0 56.0,144.0 57.0,144.0 58.0,145.0 58.0,147.0 56.0,149.0 49.0,149.0 48.0,148.0 46.0,148.0 45.0,147.0 44.0,147.0 41.0,144.0 40.0,144.0 37.0,141.0Z M352.0,126.0 352.0,129.0 351.0,130.0 350.0,130.0 349.0,131.0 344.0,131.0 343.0,132.0 342.0,132.0 338.0,136.0 334.0,136.0 332.0,134.0 336.0,130.0 337.0,130.0 345.0,122.0 347.0,122.0 348.0,123.0 349.0,123.0Z M50.0,115.0 51.0,115.0 52.0,114.0 55.0,114.0 56.0,115.0 57.0,115.0 60.0,118.0 60.0,119.0 61.0,120.0 63.0,120.0 64.0,121.0 65.0,121.0 66.0,122.0 66.0,124.0 65.0,125.0 65.0,126.0 64.0,127.0 64.0,128.0 63.0,129.0 63.0,130.0 62.0,131.0 56.0,131.0 55.0,130.0 54.0,130.0 50.0,126.0 49.0,126.0 46.0,123.0 46.0,121.0 47.0,120.0 47.0,119.0 48.0,118.0 48.0,117.0Z M60.0,99.0 62.0,97.0 64.0,97.0 69.0,102.0 78.0,102.0 81.0,105.0 81.0,109.0 78.0,112.0 75.0,112.0 72.0,109.0 72.0,108.0 71.0,107.0 70.0,107.0 69.0,106.0 62.0,106.0 61.0,105.0 61.0,104.0 60.0,103.0Z M327.0,94.0 330.0,97.0 330.0,100.0 329.0,101.0 329.0,102.0 326.0,105.0 326.0,107.0 325.0,108.0 325.0,111.0 321.0,115.0 320.0,115.0 319.0,114.0 318.0,114.0 313.0,109.0 313.0,108.0 311.0,106.0 311.0,102.0 312.0,101.0 312.0,100.0 314.0,98.0 315.0,98.0 316.0,97.0 317.0,97.0 318.0,96.0 321.0,96.0 322.0,95.0 324.0,95.0 325.0,94.0Z M74.0,86.0 75.0,85.0 77.0,85.0 79.0,87.0 80.0,87.0 81.0,88.0 82.0,88.0 84.0,90.0 85.0,90.0 88.0,93.0 88.0,98.0 87.0,99.0 85.0,99.0 81.0,95.0 80.0,95.0 79.0,94.0 79.0,93.0 78.0,92.0 78.0,91.0 74.0,87.0Z M165.0,78.0 180.0,77.0 187.0,75.0 208.0,75.0 229.0,78.0 237.0,82.0 251.0,86.0 278.0,105.0 296.0,123.0 302.0,131.0 303.0,135.0 307.0,139.0 317.0,160.0 317.0,165.0 323.0,185.0 323.0,214.0 318.0,229.0 317.0,238.0 307.0,260.0 302.0,265.0 301.0,269.0 297.0,271.0 289.0,282.0 276.0,294.0 273.0,295.0 270.0,300.0 264.0,304.0 263.0,307.0 254.0,309.0 239.0,318.0 235.0,318.0 220.0,323.0 175.0,323.0 153.0,317.0 140.0,308.0 134.0,307.0 130.0,309.0 129.0,307.0 131.0,303.0 127.0,301.0 125.0,297.0 120.0,294.0 116.0,289.0 113.0,288.0 101.0,275.0 100.0,272.0 95.0,269.0 93.0,264.0 88.0,261.0 87.0,255.0 80.0,244.0 79.0,236.0 73.0,223.0 72.0,180.0 78.0,165.0 81.0,152.0 86.0,145.0 87.0,139.0 93.0,135.0 94.0,130.0 100.0,124.0 101.0,121.0 116.0,106.0 118.0,106.0 123.0,101.0 127.0,100.0 134.0,92.0 142.0,87.0Z M309.0,72.0 310.0,73.0 310.0,75.0 307.0,78.0 306.0,78.0 304.0,80.0 303.0,80.0 302.0,81.0 302.0,82.0 301.0,83.0 301.0,84.0 300.0,85.0 300.0,86.0 299.0,87.0 299.0,88.0 297.0,90.0 295.0,90.0 294.0,89.0 293.0,89.0 291.0,87.0 291.0,83.0 293.0,81.0 293.0,80.0 294.0,79.0 295.0,79.0 297.0,77.0 298.0,77.0 299.0,76.0 299.0,75.0 300.0,74.0 300.0,73.0 301.0,72.0 302.0,72.0 303.0,71.0 307.0,71.0 308.0,72.0Z M85.0,72.0 86.0,72.0 87.0,71.0 88.0,71.0 89.0,72.0 90.0,72.0 92.0,74.0 92.0,75.0 95.0,78.0 95.0,79.0 96.0,80.0 96.0,81.0 97.0,82.0 97.0,83.0 99.0,85.0 99.0,86.0 98.0,87.0 97.0,87.0 95.0,85.0 94.0,85.0 92.0,83.0 91.0,83.0 90.0,82.0 90.0,81.0 84.0,75.0 84.0,73.0Z M291.0,59.0 293.0,61.0 293.0,63.0 292.0,64.0 290.0,64.0 289.0,65.0 283.0,65.0 282.0,66.0 282.0,76.0 281.0,77.0 279.0,77.0 276.0,74.0 276.0,72.0 275.0,71.0 275.0,68.0 276.0,67.0 276.0,66.0 277.0,65.0 277.0,64.0 280.0,61.0 281.0,61.0 284.0,58.0 289.0,58.0 290.0,59.0Z M100.0,63.0 101.0,62.0 102.0,62.0 103.0,61.0 104.0,61.0 105.0,60.0 106.0,60.0 107.0,59.0 108.0,59.0 109.0,58.0 111.0,58.0 112.0,59.0 112.0,60.0 113.0,61.0 113.0,67.0 114.0,68.0 114.0,71.0 115.0,72.0 115.0,74.0 114.0,75.0 112.0,75.0 111.0,74.0 110.0,74.0 108.0,72.0 107.0,72.0 106.0,71.0 105.0,71.0 101.0,67.0 101.0,66.0 100.0,65.0Z M74.0,53.0 76.0,55.0 76.0,56.0 74.0,58.0 73.0,58.0 72.0,59.0 71.0,59.0 71.0,60.0 66.0,65.0 65.0,65.0 65.0,66.0 60.0,71.0 59.0,71.0 59.0,72.0 55.0,76.0 53.0,74.0 53.0,73.0 54.0,72.0 54.0,71.0 66.0,59.0 67.0,59.0 72.0,54.0 73.0,54.0Z M261.0,47.0 264.0,50.0 264.0,51.0 265.0,52.0 267.0,52.0 268.0,53.0 269.0,52.0 272.0,52.0 273.0,53.0 273.0,54.0 274.0,55.0 273.0,56.0 273.0,58.0 270.0,61.0 270.0,62.0 268.0,64.0 265.0,64.0 263.0,62.0 263.0,61.0 262.0,61.0 261.0,60.0 256.0,60.0 254.0,58.0 254.0,56.0 256.0,54.0 256.0,53.0 257.0,52.0 257.0,51.0Z M136.0,42.0 142.0,42.0 146.0,46.0 147.0,46.0 148.0,47.0 148.0,48.0 149.0,49.0 149.0,50.0 150.0,51.0 150.0,54.0 149.0,55.0 149.0,57.0 147.0,59.0 145.0,59.0 143.0,57.0 143.0,55.0 144.0,54.0 144.0,49.0 142.0,47.0 139.0,47.0 138.0,48.0 137.0,48.0 135.0,50.0 135.0,51.0 136.0,52.0 136.0,53.0 137.0,54.0 137.0,56.0 139.0,58.0 139.0,59.0 140.0,59.0 142.0,61.0 142.0,62.0 141.0,63.0 140.0,63.0 139.0,64.0 138.0,63.0 136.0,63.0 131.0,58.0 131.0,57.0 129.0,55.0 129.0,54.0 128.0,53.0 128.0,49.0 129.0,48.0 130.0,48.0 132.0,46.0 132.0,45.0 134.0,43.0 135.0,43.0Z M245.0,37.0 248.0,40.0 248.0,41.0 247.0,42.0 247.0,44.0 246.0,45.0 246.0,46.0 245.0,47.0 245.0,48.0 244.0,49.0 244.0,55.0 243.0,56.0 243.0,57.0 242.0,58.0 237.0,58.0 235.0,56.0 235.0,55.0 234.0,54.0 234.0,52.0 235.0,51.0 235.0,50.0 238.0,47.0 238.0,46.0 239.0,45.0 239.0,43.0 240.0,42.0 240.0,40.0 243.0,37.0Z M229.0,37.0 231.0,39.0 231.0,40.0 229.0,42.0 229.0,43.0 228.0,44.0 228.0,47.0 227.0,48.0 227.0,49.0 225.0,51.0 224.0,51.0 223.0,50.0 223.0,48.0 222.0,47.0 223.0,46.0 223.0,43.0 224.0,42.0 224.0,41.0 228.0,37.0Z M157.0,36.0 159.0,36.0 162.0,39.0 162.0,47.0 161.0,48.0 161.0,51.0 159.0,53.0 158.0,53.0 156.0,51.0 156.0,50.0 155.0,49.0 155.0,43.0 154.0,42.0 154.0,38.0 155.0,37.0 156.0,37.0Z M100.0,37.0 100.0,38.0 98.0,40.0 96.0,40.0 95.0,41.0 94.0,41.0 94.0,42.0 90.0,46.0 89.0,46.0 88.0,47.0 86.0,47.0 84.0,45.0 84.0,44.0 86.0,42.0 87.0,42.0 88.0,41.0 90.0,41.0 92.0,39.0 92.0,38.0 94.0,36.0 99.0,36.0Z M212.0,51.0 211.0,52.0 206.0,52.0 203.0,49.0 203.0,48.0 202.0,48.0 201.0,47.0 200.0,47.0 199.0,46.0 196.0,46.0 192.0,50.0 191.0,50.0 190.0,51.0 188.0,51.0 186.0,49.0 186.0,44.0 181.0,39.0 181.0,38.0 180.0,37.0 181.0,36.0 181.0,35.0 184.0,32.0 187.0,32.0 189.0,34.0 189.0,35.0 190.0,36.0 190.0,39.0 191.0,40.0 191.0,41.0 194.0,44.0 196.0,44.0 200.0,40.0 200.0,39.0 204.0,35.0 204.0,34.0 206.0,32.0 207.0,32.0 208.0,31.0 210.0,31.0 212.0,33.0 212.0,34.0 211.0,35.0 211.0,36.0 210.0,37.0 210.0,38.0 209.0,39.0 209.0,46.0 210.0,47.0 210.0,48.0 212.0,50.0Z M2040.0,9.0 2034.0,5.0 2023.0,5.0 2001.0,17.0 1994.0,18.0 1991.0,24.0 1992.0,28.0 2002.0,37.0 2002.0,44.0 1989.0,50.0 1983.0,50.0 1974.0,44.0 1974.0,34.0 1980.0,21.0 1980.0,9.0 1975.0,0.0 1961.0,0.0 1955.0,10.0 1954.0,25.0 1946.0,30.0 1942.0,36.0 1943.0,58.0 1946.0,67.0 1943.0,74.0 1940.0,74.0 1938.0,71.0 1938.0,43.0 1932.0,35.0 1932.0,28.0 1929.0,24.0 1923.0,24.0 1920.0,27.0 1919.0,63.0 1917.0,65.0 1913.0,61.0 1907.0,37.0 1900.0,31.0 1896.0,31.0 1893.0,36.0 1895.0,84.0 1901.0,101.0 1901.0,115.0 1908.0,127.0 1900.0,136.0 1893.0,139.0 1888.0,135.0 1888.0,123.0 1882.0,114.0 1875.0,115.0 1872.0,119.0 1870.0,128.0 1865.0,135.0 1865.0,140.0 1859.0,149.0 1860.0,166.0 1868.0,172.0 1872.0,172.0 1881.0,167.0 1889.0,157.0 1906.0,144.0 1918.0,143.0 1926.0,138.0 1934.0,138.0 1946.0,132.0 1957.0,131.0 1965.0,126.0 1974.0,125.0 1982.0,120.0 1994.0,119.0 2002.0,114.0 2007.0,116.0 2003.0,123.0 2003.0,129.0 2007.0,132.0 2032.0,138.0 2055.0,137.0 2062.0,132.0 2070.0,122.0 2070.0,112.0 2068.0,108.0 2054.0,101.0 2021.0,100.0 2016.0,96.0 2015.0,92.0 2017.0,65.0 2021.0,58.0 2022.0,50.0 2039.0,25.0 2041.0,15.0Z M1922.0,93.0 1923.0,93.0 1924.0,94.0 1924.0,95.0 1925.0,96.0 1925.0,111.0 1926.0,112.0 1926.0,117.0 1924.0,119.0 1922.0,119.0 1921.0,118.0 1921.0,117.0 1920.0,116.0 1920.0,96.0 1921.0,95.0 1921.0,94.0Z M1987.0,63.0 1988.0,63.0 1990.0,65.0 1990.0,69.0 1988.0,71.0 1987.0,71.0 1986.0,72.0 1984.0,72.0 1983.0,73.0 1982.0,73.0 1981.0,74.0 1981.0,81.0 1982.0,82.0 1982.0,83.0 1985.0,86.0 1985.0,87.0 1986.0,88.0 1986.0,89.0 1988.0,91.0 1988.0,92.0 1990.0,94.0 1990.0,96.0 1991.0,97.0 1991.0,98.0 1990.0,99.0 1990.0,100.0 1988.0,102.0 1985.0,102.0 1984.0,101.0 1983.0,101.0 1974.0,92.0 1974.0,90.0 1973.0,89.0 1973.0,88.0 1972.0,87.0 1972.0,86.0 1971.0,85.0 1971.0,84.0 1969.0,82.0 1969.0,80.0 1970.0,79.0 1970.0,78.0 1973.0,75.0 1973.0,74.0 1981.0,66.0 1982.0,66.0 1983.0,65.0 1984.0,65.0 1985.0,64.0 1986.0,64.0Z" fill="currentColor" fill-rule="evenodd" filter="url(#chalk)"/>
</svg>
